<?xml version="1.0" encoding="UTF-8"?>
<svg xmlns="http://www.w3.org/2000/svg" xmlns:xlink="http://www.w3.org/1999/xlink" version="1.2" >
<font id="Love Rosnita">
<font-face  font-family="Love Rosnita" units-per-em="1000" ascent="750" descent="-250" font-style="normal" font-weight="400" font-stretch="normal" cap-height="700" x-height="500" underline-position="-75" underline-thickness="50" />
<missing-glyph  horiz-adv-x="182" d="" />
<glyph glyph-name="NULL" d="" />
<glyph glyph-name="CR" unicode="&#xd;" horiz-adv-x="182" d="" />
<glyph glyph-name="space" unicode="&#x20;" horiz-adv-x="182" d="" />
<glyph glyph-name="exclam" unicode="&#x21;" horiz-adv-x="85" d="M183 692 C183 694 183 695 183 697 C183 697 183 698 183 699 C182 701 179 703 175 703 C172 703 171 701 170 699 C170 697 169 696 168 694 C162 677 156 660 150 642 C139 613 128 584 118 555 C110 531 102 506 94 481 C85 455 78 429 69 403 C61 378 53 352 44 327 C37 306 30 285 23 265 C15 241 7 216 -2 192 C-4 186 -5 180 -7 174 C-8 171 -6 170 -3 170 C1 170 5 171 7 174 C9 177 11 180 12 183 C23 211 33 239 44 267 C57 305 70 342 83 379 C95 412 107 446 118 479 C128 509 138 540 148 570 C156 596 165 622 173 648 C177 663 180 678 184 692 C183 692 183 692 183 692 L183 692 Z M-6 138 C-11 139 -17 137 -18 133 C-22 121 -25 110 -28 98 C-27 94 -27 90 -26 86 C-25 84 -22 84 -19 85 C-17 85 -15 86 -15 87 C-14 93 -14 99 -12 105 C-10 115 -7 125 -4 134 C-3 136 -4 138 -6 138 L-6 138 Z " />
<glyph glyph-name="quotedbl" unicode="&#x22;" horiz-adv-x="195" d="M202 702 C202 707 200 710 195 711 C191 711 188 710 187 706 C184 697 181 688 179 680 C175 667 172 655 169 642 C169 641 169 639 169 639 C173 634 178 635 181 640 C182 641 182 643 183 644 C188 659 192 673 197 687 C199 692 200 698 202 702 L202 702 Z M179 702 C180 707 177 710 172 711 C168 711 166 710 164 706 C162 697 159 688 156 680 C153 667 150 655 146 642 C146 641 146 639 147 639 C150 634 155 635 158 640 C159 641 160 643 160 644 C165 659 170 673 174 687 C176 692 178 698 179 702 L179 702 Z " />
<glyph glyph-name="numbersign" unicode="&#x23;" horiz-adv-x="165" d="M28 218 C24 203 19 189 15 174 C11 159 7 144 3 128 C2 124 4 122 8 122 C14 121 16 123 16 127 C17 129 17 131 18 133 C27 162 36 191 45 220 C45 221 47 222 48 223 C54 224 61 226 67 227 C70 228 73 228 77 229 C72 214 68 200 64 186 C62 177 60 169 58 161 C57 155 64 151 70 154 C71 154 72 156 72 156 C69 161 71 166 73 170 C79 190 85 210 91 230 C92 232 93 233 95 233 C104 235 112 237 121 238 C131 240 141 243 150 241 C151 241 153 241 153 242 C153 243 153 244 153 245 C151 248 147 250 144 250 C137 249 130 249 124 248 C114 247 105 245 96 243 C98 249 100 255 102 260 C102 261 103 262 104 262 C116 264 128 265 139 267 C141 267 142 268 144 269 C143 270 142 272 141 273 C140 273 138 274 137 274 C134 274 131 274 128 273 C120 272 113 272 105 270 C108 279 111 288 114 296 C119 310 124 325 129 339 C130 342 129 343 127 344 C123 346 119 344 116 338 C107 319 99 298 92 277 C91 271 88 266 81 267 C81 267 80 267 80 266 C73 265 67 264 60 263 C60 265 60 265 60 266 C63 273 66 281 68 288 C74 306 80 324 86 343 C87 346 86 347 84 349 C78 352 73 350 70 343 C61 316 51 290 42 263 C41 261 40 260 37 259 C27 257 16 255 6 252 C4 252 3 250 1 249 C3 248 4 246 6 245 C7 245 8 245 9 245 C11 245 14 245 17 246 C24 247 30 249 38 250 C36 244 34 238 32 232 C32 230 31 229 29 229 C16 226 4 223 -8 219 C-9 219 -10 218 -11 217 C-11 216 -10 215 -9 214 C-6 211 -2 212 2 213 C10 214 19 216 28 218 L28 218 Z M49 234 C52 240 54 246 56 252 C56 253 57 254 57 254 C67 255 76 257 85 259 C85 259 85 258 86 258 C84 252 82 247 80 241 C80 240 79 240 79 240 C69 238 60 236 51 234 C51 234 50 234 49 234 L49 234 Z " />
<glyph glyph-name="dollar" unicode="&#x24;" horiz-adv-x="227" d="M97 291 C97 290 96 290 96 289 C81 238 65 189 50 138 C50 137 49 135 48 135 C37 131 27 127 15 126 C11 126 8 127 7 131 C6 133 5 137 6 140 C7 148 8 158 11 167 C18 188 27 207 38 226 C41 231 42 237 49 240 C49 240 49 240 49 241 C52 247 55 252 57 259 C58 260 58 263 56 264 C52 269 45 269 40 265 C38 263 37 262 36 261 C19 237 4 212 -8 186 C-13 172 -17 159 -17 144 C-17 130 -10 121 2 117 C9 114 17 113 25 115 C31 116 37 117 44 118 C44 118 44 118 44 117 C36 93 29 69 20 45 C20 42 20 40 23 39 C29 37 35 37 39 45 C39 47 40 49 41 51 C49 75 58 100 65 124 C66 126 67 127 69 128 C98 141 125 158 149 179 C162 191 174 202 182 217 C189 226 192 237 189 249 C186 260 179 268 169 274 C159 280 149 285 137 290 C133 293 127 294 122 295 C122 296 122 297 122 298 C139 352 157 405 174 457 C175 459 177 462 179 463 C183 466 187 468 192 470 C197 472 203 475 210 478 C209 475 209 475 209 474 C200 456 193 437 184 419 C172 393 159 367 146 341 C143 336 141 329 138 323 C137 320 140 316 144 314 C148 312 150 315 151 318 C152 322 154 324 156 328 C173 363 191 397 207 431 C213 443 218 456 223 469 C225 477 223 484 217 489 C211 494 205 492 198 489 C194 487 188 485 182 482 C185 492 189 501 192 511 C194 521 196 531 197 542 C198 546 195 549 190 550 C184 551 185 547 183 544 C176 521 167 499 159 475 C157 469 153 464 148 459 C128 446 108 432 89 417 C77 408 65 396 54 383 C46 375 39 364 35 353 C30 336 34 323 47 312 C55 305 66 301 78 297 C84 294 91 293 97 291 L97 291 Z M73 147 C88 193 103 239 118 285 C133 280 148 277 161 267 C174 259 177 247 170 232 C164 217 152 206 141 194 C123 176 100 161 77 148 C76 147 75 147 73 147 L73 147 Z M100 301 C87 306 74 309 62 314 C51 319 49 325 49 337 C50 340 51 345 53 349 C57 360 64 369 72 378 C76 382 79 386 82 390 C101 409 122 426 144 441 C145 441 146 441 147 442 C131 396 116 349 100 301 L100 301 Z " />
<glyph glyph-name="percent" unicode="&#x25;" horiz-adv-x="198" d="M261 551 C261 551 261 550 261 550 C256 544 250 537 245 531 C215 497 188 461 161 423 C113 354 69 282 26 208 C-18 131 -64 55 -109 -21 C-112 -27 -116 -33 -119 -39 C-120 -41 -121 -42 -119 -44 C-116 -48 -108 -47 -104 -41 C-103 -40 -102 -39 -100 -38 C-96 -36 -92 -34 -88 -31 C-67 -14 -46 3 -25 20 C-17 27 -8 34 1 42 C-1 38 -2 33 -4 29 C-7 17 -4 8 4 3 C12 -1 20 -1 28 4 C38 11 47 19 55 29 C64 41 72 53 76 68 C78 75 79 83 80 90 C84 90 85 92 83 95 C82 97 81 99 81 102 C80 105 76 109 73 108 C71 108 70 105 68 104 C65 110 59 112 51 105 C45 99 38 93 33 86 C24 75 14 66 4 57 C-25 33 -54 9 -82 -15 C-85 -17 -88 -19 -91 -21 C-85 -11 -80 -2 -74 7 C-25 87 23 167 72 246 C120 325 170 401 225 474 C241 495 259 516 276 537 C282 545 288 552 294 560 C298 565 299 570 296 575 C292 581 289 581 283 578 C272 573 262 568 252 564 C224 552 197 541 170 529 C169 529 168 528 167 528 C161 531 155 528 150 525 C137 520 127 510 117 498 C112 492 107 484 103 476 C99 465 99 455 105 447 C111 439 119 436 129 440 C138 443 145 451 151 459 C158 468 163 477 164 489 C164 494 163 499 163 504 C163 507 163 509 166 510 C170 512 173 514 177 516 C198 525 220 534 242 543 C248 545 255 548 261 551 L261 551 Z M152 513 C153 509 153 505 154 501 C154 493 152 486 148 479 C142 469 135 460 126 455 C124 453 121 452 119 451 C114 450 113 451 113 457 C114 460 115 463 116 467 C119 476 125 484 131 491 C137 498 143 504 150 511 C150 511 151 512 152 513 L152 513 Z M15 17 C15 24 18 30 21 36 C30 51 40 65 51 79 C57 86 62 93 68 99 C71 77 38 26 15 17 L15 17 Z " />
<glyph glyph-name="ampersand" unicode="&#x26;" horiz-adv-x="207" d="M1 137 C1 135 0 132 0 130 C0 129 0 128 0 127 C1 109 11 97 27 96 C40 95 51 101 62 110 C72 118 81 129 89 139 C92 143 95 147 97 150 C97 149 97 148 97 147 C89 122 80 96 72 71 C54 2 36 -68 23 -138 C21 -145 21 -152 21 -159 C20 -163 22 -164 25 -164 C29 -164 33 -162 34 -160 C34 -159 34 -159 34 -159 C35 -152 35 -144 36 -137 C41 -115 46 -93 51 -71 C60 -37 69 -4 78 30 C94 85 111 139 134 191 C141 208 148 224 159 238 C162 242 164 246 167 250 C168 253 168 255 166 256 C162 261 154 261 150 256 C148 254 147 252 145 250 C136 237 128 222 121 208 C120 204 118 201 116 198 C107 184 98 171 88 158 C77 143 66 129 53 117 C47 112 42 108 36 106 C29 104 24 106 22 113 C21 117 20 121 20 125 C19 138 23 151 28 164 C42 200 61 233 85 263 C91 271 98 278 107 283 C112 286 117 290 121 294 C126 299 126 302 120 305 C116 307 111 307 106 304 C94 298 84 289 75 279 C74 278 73 277 71 276 C65 274 60 271 53 270 C49 269 47 270 47 275 C46 282 47 288 49 294 C54 310 62 324 70 338 C82 359 95 379 113 396 C118 401 125 406 131 410 C135 412 139 413 143 410 C150 405 158 386 153 375 C153 373 152 371 152 369 C151 368 152 367 152 366 C154 365 158 366 160 367 C165 372 167 378 170 384 C180 412 191 441 201 469 C218 518 235 566 251 615 C253 621 255 628 257 634 C259 639 258 641 254 642 C250 644 248 642 246 638 C246 636 246 635 245 634 C239 617 234 601 228 584 C216 552 204 520 193 488 C184 464 175 440 167 416 C165 410 163 405 161 399 C159 401 158 404 157 406 C147 422 127 424 115 414 C112 412 109 410 105 409 C103 408 100 406 98 405 C95 402 91 399 88 395 C66 373 49 347 37 318 C32 308 29 298 27 287 C26 274 31 264 43 261 C48 259 53 259 58 259 C58 258 57 258 57 257 C48 244 39 231 31 217 C20 198 11 177 5 156 C3 150 2 143 1 137 L1 137 Z " />
<glyph glyph-name="quotesingle" unicode="&#x27;" horiz-adv-x="165" d="M175 702 C175 707 173 710 168 711 C164 711 161 710 160 706 C157 697 155 688 152 680 C149 667 145 655 142 642 C142 641 142 639 143 639 C146 634 151 635 154 640 C155 641 156 643 156 644 C161 659 165 673 170 687 C172 692 174 698 175 702 L175 702 Z " />
<glyph glyph-name="parenleft" unicode="&#x28;" horiz-adv-x="140" d="M-15 113 C-15 113 -16 113 -16 113 C-17 95 -19 78 -20 61 C-20 20 -18 -20 -14 -59 C-12 -70 -10 -81 -7 -92 C-5 -100 3 -101 8 -94 C10 -93 11 -90 11 -88 C11 -87 9 -85 9 -85 C5 -85 5 -82 4 -79 C3 -75 3 -71 2 -67 C-1 -41 -1 -15 -2 12 C-3 35 -2 58 0 82 C6 126 15 170 27 213 C44 276 64 337 89 396 C125 484 169 565 222 636 C234 652 246 668 260 680 C262 681 263 682 265 683 C266 684 268 685 270 686 C269 689 268 691 267 693 C267 693 266 694 266 694 C260 698 254 695 248 690 C241 684 233 677 227 670 C206 648 188 621 170 594 C128 528 93 456 62 380 C43 331 26 280 11 229 C0 190 -10 152 -15 113 L-15 113 Z " />
<glyph glyph-name="parenright" unicode="&#x29;" horiz-adv-x="112" d="M133 509 C134 515 136 526 136 537 C140 570 139 602 133 632 C128 656 121 677 110 694 C109 697 106 698 104 699 C101 700 100 697 101 694 C101 692 102 690 103 688 C105 683 107 677 109 672 C121 636 123 596 120 554 C117 520 111 487 102 454 C92 414 79 376 64 338 C45 286 24 235 2 185 C-28 118 -61 53 -100 -6 C-118 -34 -137 -63 -155 -91 C-157 -94 -158 -96 -160 -98 C-161 -102 -161 -104 -158 -105 C-154 -105 -151 -103 -148 -98 C-127 -67 -106 -36 -85 -6 C-67 20 -49 46 -33 75 C22 177 69 284 106 397 C117 432 127 468 133 509 L133 509 Z " />
<glyph glyph-name="asterisk" unicode="&#x2a;" horiz-adv-x="173" d="M157 611 C157 610 157 609 157 609 C154 600 151 592 148 583 C148 581 147 580 149 579 C154 576 160 578 162 583 C165 591 168 599 172 607 C174 611 176 616 178 620 C178 620 178 621 179 621 C185 611 192 601 198 590 C200 588 206 585 209 587 C211 588 211 590 209 594 C208 595 208 597 207 598 C201 606 195 615 189 624 C187 626 186 628 184 631 C188 632 192 632 196 633 C214 635 231 640 249 640 C250 640 252 641 252 642 C253 643 252 645 251 646 C250 647 248 647 247 648 C241 650 235 649 229 648 C220 647 211 646 201 645 C209 650 216 656 223 661 C226 664 229 667 232 670 C233 671 233 673 232 674 C231 677 226 677 224 675 C216 669 208 663 200 656 C197 654 194 652 190 649 C190 650 190 651 191 651 C195 664 200 677 205 690 C207 696 204 699 198 698 C195 698 193 696 192 694 C187 684 183 675 179 665 C176 660 174 654 171 648 C171 650 170 650 169 651 C166 656 162 660 158 665 C155 668 151 671 146 670 C145 670 143 669 142 668 C143 667 143 666 144 665 C150 657 157 649 163 640 C163 640 163 640 164 639 C162 639 161 639 159 638 C148 636 137 634 127 632 C125 631 123 629 122 628 C123 627 124 625 126 624 C128 623 129 623 131 623 C134 623 137 623 140 623 C146 625 153 626 159 627 C156 624 153 621 150 619 C143 614 136 609 129 603 C127 601 127 599 130 598 C133 597 136 598 139 599 C145 603 151 607 157 611 L157 611 Z " />
<glyph glyph-name="plus" unicode="&#x2b;" horiz-adv-x="193" d="M69 228 C65 228 63 228 60 228 C45 226 31 225 17 225 C14 225 13 225 14 221 C16 217 21 214 26 214 C37 214 49 215 60 215 C61 215 63 215 64 215 C64 214 64 214 64 214 C58 194 53 175 49 154 C47 150 46 144 48 139 C49 136 55 133 58 136 C60 136 61 137 61 138 C62 144 62 150 64 156 C70 175 76 193 81 211 C83 217 83 217 89 217 C100 218 111 218 123 219 C130 220 137 220 145 221 C146 221 147 221 148 222 C149 223 148 225 148 225 C146 231 142 232 137 232 C125 232 113 232 102 231 C98 231 93 230 89 230 C89 232 89 233 90 234 C95 249 100 263 105 277 C108 285 106 288 99 289 C96 290 92 289 90 284 C85 273 81 263 76 252 C73 245 71 236 69 228 L69 228 Z " />
<glyph glyph-name="comma" unicode="&#x2c;" horiz-adv-x="105" d="M29 123 C30 129 27 131 23 132 C19 133 16 131 14 127 C12 119 9 110 7 101 C3 89 0 76 -3 64 C-4 63 -4 61 -3 60 C1 56 6 57 9 62 C9 63 10 64 11 66 C15 80 20 94 25 109 C26 114 28 119 29 123 L29 123 Z " />
<glyph glyph-name="hyphen" unicode="&#x2d;" horiz-adv-x="225" d="M115 225 C115 225 115 225 115 225 C103 225 90 224 77 224 C63 223 49 222 35 221 C33 221 31 220 29 219 C30 218 31 216 32 215 C37 211 44 210 50 210 C72 211 93 211 115 212 C129 212 143 214 157 215 C159 215 162 216 162 217 C162 218 161 220 160 221 C155 224 149 225 143 225 C134 225 125 225 115 225 L115 225 Z " />
<glyph glyph-name="period" unicode="&#x2e;" horiz-adv-x="100" d="M29 121 C29 127 26 131 20 131 C10 130 1 121 1 112 C1 108 3 105 6 104 C18 101 29 109 29 121 L29 121 Z " />
<glyph glyph-name="slash" unicode="&#x2f;" horiz-adv-x="130" d="M207 689 C207 690 208 691 208 692 C208 698 206 701 202 701 C200 702 199 701 198 698 C193 681 188 663 182 646 C168 603 154 560 140 517 C123 467 106 417 88 368 C59 282 31 196 4 110 C-16 49 -35 -12 -54 -72 C-57 -82 -60 -92 -62 -102 C-63 -108 -62 -110 -57 -110 C-56 -110 -54 -109 -52 -108 C-51 -108 -50 -106 -50 -105 C-47 -95 -45 -85 -42 -76 C-25 -23 -7 30 10 83 C29 139 49 195 68 251 C92 322 116 394 140 466 C160 525 180 586 198 646 C202 660 205 674 207 689 L207 689 Z " />
<glyph glyph-name="zero" unicode="0" horiz-adv-x="210" d="M211 389 C211 402 206 414 197 424 C192 430 186 434 178 436 C168 438 158 438 148 436 C138 433 131 427 127 417 C134 413 135 413 138 418 C142 423 146 428 152 429 C175 434 187 429 196 408 C197 406 197 404 198 402 C201 392 202 381 201 370 C201 353 199 336 195 318 C186 276 171 234 149 196 C137 177 124 158 106 143 C98 136 89 130 78 127 C66 124 54 127 46 138 C41 144 38 150 36 157 C31 175 32 192 34 210 C37 236 44 261 52 286 C69 334 94 379 124 420 C125 422 126 424 127 426 C129 429 129 431 125 433 C119 436 115 435 111 431 C104 424 98 418 93 411 C59 366 36 317 22 263 C16 235 11 207 14 178 C16 162 20 147 30 135 C38 125 48 119 61 118 C74 117 85 120 97 126 C110 134 122 144 132 156 C143 170 153 185 162 200 C183 239 197 280 206 324 C211 345 213 367 211 389 L211 389 Z " />
<glyph glyph-name="one" unicode="1" horiz-adv-x="95" d="M102 437 C98 439 93 439 90 436 C85 429 78 421 71 416 C69 413 70 411 74 410 C76 409 78 411 79 412 C84 417 86 420 90 425 C91 424 91 424 91 424 C91 422 90 420 89 419 C81 393 70 368 60 341 C40 287 20 230 5 173 C2 157 -2 141 -5 128 C-12 126 -19 124 -27 123 C-25 119 -22 118 -20 118 C-15 118 -11 119 -7 120 C5 122 19 129 34 129 C35 129 36 130 36 131 C36 132 35 134 34 134 C31 135 28 135 25 135 C20 134 15 133 9 132 C10 135 11 137 12 138 C21 162 29 184 37 208 C51 251 65 293 80 336 C87 359 96 383 104 409 C106 415 107 420 108 427 C108 431 106 435 102 437 L102 437 Z " />
<glyph glyph-name="two" unicode="2" horiz-adv-x="137" d="M18 165 C19 167 19 168 20 168 C48 199 69 234 91 270 C108 300 124 331 136 365 C140 380 144 393 143 408 C143 422 137 431 124 436 C113 438 103 436 94 429 C73 416 57 395 47 372 C47 371 47 370 46 367 C46 365 46 363 49 362 C52 362 54 364 54 366 C60 380 68 392 80 402 C88 413 100 421 113 425 C123 427 124 426 125 417 C125 413 125 411 125 408 C124 395 119 382 114 371 C98 326 76 284 52 244 C38 219 21 196 5 173 C2 171 0 169 -4 169 C-8 169 -11 169 -15 168 C-25 167 -34 163 -40 155 C-45 150 -47 145 -46 139 C-43 133 -39 131 -34 131 C-33 131 -32 131 -30 131 C-25 131 -17 134 -12 137 C-5 142 1 148 8 154 C10 158 13 159 17 156 C22 154 27 152 30 150 C58 136 88 124 119 116 C124 116 129 115 133 115 C136 115 139 117 139 121 C137 124 134 124 132 123 C129 122 126 122 123 123 C97 130 71 139 48 151 C39 155 29 160 18 165 L18 165 Z M-31 141 C-29 152 -21 160 -7 160 C-13 152 -22 145 -31 141 L-31 141 Z " />
<glyph glyph-name="three" unicode="3" horiz-adv-x="157" d="M133 424 C133 421 133 419 132 417 C128 411 125 406 121 402 C112 391 102 380 91 370 C82 361 72 352 63 343 C57 336 56 331 62 326 C63 324 66 323 70 322 C73 321 77 320 79 319 C93 315 103 304 106 290 C109 279 108 268 105 258 C97 226 80 194 59 165 C52 156 44 147 34 140 C24 132 13 127 4 126 C-7 125 -13 130 -13 142 C-13 146 -13 149 -13 154 C-9 171 -7 189 6 205 C5 208 4 207 0 205 C-4 202 -8 197 -11 191 C-19 173 -23 155 -24 136 C-24 131 -23 127 -19 124 C-14 120 -9 118 -4 117 C8 115 25 120 41 130 C57 139 68 151 80 167 C97 188 110 212 120 236 C130 266 128 292 114 311 C106 321 95 326 83 331 C81 331 80 332 79 333 C84 337 87 340 90 344 C99 352 109 361 117 370 C126 379 135 390 142 402 C144 406 146 410 146 414 C150 427 141 437 126 434 C119 433 112 428 105 424 C85 411 67 394 54 375 C51 372 50 368 48 365 C45 360 47 358 53 358 C59 366 63 374 71 382 C82 396 96 408 112 418 C119 422 126 425 133 424 L133 424 Z " />
<glyph glyph-name="four" unicode="4" horiz-adv-x="125" d="M86 314 C81 297 77 282 72 266 C63 237 56 208 48 179 C44 162 40 146 35 128 C33 120 36 118 45 119 C50 120 51 124 52 128 C62 162 72 195 83 228 C102 285 123 342 144 398 C147 406 149 414 151 424 C153 429 151 431 147 432 C143 433 139 433 136 429 C134 426 132 423 131 418 C121 395 111 372 100 348 C99 345 98 342 96 340 C88 328 78 316 66 308 C61 304 55 301 49 297 C43 294 39 296 39 305 C40 310 41 315 42 320 C46 334 52 348 58 360 C68 378 80 396 91 413 C93 418 96 424 98 428 C100 433 99 436 94 438 C89 439 85 439 82 434 C79 430 75 426 72 422 C55 397 40 373 28 346 C24 334 21 323 21 311 C21 301 27 292 38 289 C44 288 50 288 56 291 C62 295 68 300 75 304 C79 307 82 310 86 314 L86 314 Z " />
<glyph glyph-name="five" unicode="5" horiz-adv-x="170" d="M48 228 C51 227 53 226 54 226 C58 226 60 227 61 232 C62 235 61 237 59 238 C55 239 51 239 47 237 C44 235 41 233 37 231 C22 219 8 206 -1 190 C-12 178 -19 165 -23 150 C-28 134 -21 121 -6 119 C0 118 5 118 11 120 C31 123 49 135 67 149 C96 173 118 201 134 234 C141 249 147 266 149 282 C152 313 134 332 108 333 C96 334 83 331 71 324 C66 322 60 320 55 317 C56 320 57 322 58 324 C73 350 86 376 99 403 C103 409 105 416 110 422 C112 429 112 429 118 430 C122 431 126 431 130 431 C142 432 153 432 165 432 C168 432 172 431 174 434 C173 439 169 439 165 439 C145 439 124 438 105 438 C99 438 94 435 90 430 C86 424 83 420 79 415 C59 381 40 345 23 309 C21 305 18 299 16 294 C16 292 16 289 17 288 C21 282 32 283 37 290 C40 292 41 294 43 296 C59 309 74 319 92 324 C119 332 135 319 135 293 C136 278 131 265 125 251 C113 220 93 193 69 168 C57 154 43 144 27 136 C20 132 12 128 4 127 C-3 127 -7 131 -9 139 C-8 142 -8 145 -8 148 C-7 158 -2 167 1 176 C14 197 31 213 48 228 L48 228 Z " />
<glyph glyph-name="six" unicode="6" horiz-adv-x="165" d="M136 346 C141 342 144 342 146 348 C151 356 155 364 157 373 C162 387 165 402 164 416 C162 437 147 445 128 433 C120 429 114 422 107 415 C100 405 91 396 82 385 C53 341 30 292 16 243 C9 218 3 193 2 167 C1 156 2 145 6 137 C10 123 19 118 33 120 C45 122 55 130 65 139 C76 149 87 161 93 173 C113 200 126 229 138 258 C143 268 145 278 147 289 C149 307 139 314 123 307 C119 306 115 302 111 299 C97 289 85 277 72 264 C61 249 49 234 37 219 C36 217 34 216 31 212 C32 217 33 219 33 222 C38 244 46 266 56 288 C72 325 91 362 115 396 C120 403 128 411 135 419 C139 423 143 427 149 427 C153 424 153 419 153 413 C154 392 149 371 139 352 C138 350 136 347 136 346 L136 346 Z M134 303 C137 296 136 288 135 281 C131 267 125 254 119 240 C107 213 93 188 73 165 C64 154 56 144 45 137 C34 130 31 127 26 142 C23 155 24 170 26 185 C27 187 28 189 29 192 C53 223 77 254 107 283 C112 288 117 292 123 297 C127 300 130 301 134 303 L134 303 Z " />
<glyph glyph-name="seven" unicode="7" horiz-adv-x="145" d="M70 413 C74 408 74 408 80 410 C99 416 117 422 135 425 C141 426 148 428 155 426 C154 423 154 420 152 417 C148 411 145 405 141 399 C120 365 97 329 75 294 C73 290 70 288 65 287 C54 284 44 281 33 278 C31 277 26 275 24 274 C28 270 30 269 35 271 C41 273 48 275 57 276 C60 277 63 278 67 278 C62 271 59 266 57 259 C40 226 24 191 9 157 C4 146 -1 136 -5 125 C-6 123 -8 121 -6 119 C-1 114 8 116 13 123 C14 127 16 132 18 137 C40 180 62 224 87 266 C90 271 94 276 96 281 C97 284 98 285 101 285 C111 286 120 290 130 287 C130 287 131 287 131 287 C134 287 135 289 133 292 C132 293 131 294 129 295 C125 295 123 296 119 296 C112 295 108 295 103 294 C106 297 106 299 107 301 C116 315 124 330 134 344 C145 363 155 381 165 398 C168 403 170 408 171 414 C174 424 171 430 163 434 C156 438 149 438 142 436 C120 432 99 425 78 417 C76 416 74 415 70 413 L70 413 Z " />
<glyph glyph-name="eight" unicode="8" horiz-adv-x="165" d="M160 383 C166 392 170 400 172 410 C174 421 170 430 160 435 C152 439 144 439 135 437 C112 430 91 417 78 398 C67 384 68 372 79 359 C84 354 88 350 95 345 C97 342 100 341 104 338 L109 335 L75 299 L75 299 C74 297 71 296 71 294 C71 294 71 294 71 294 C51 273 33 253 13 232 C3 219 -7 207 -16 193 C-24 180 -33 164 -36 149 C-40 134 -33 123 -15 120 C-6 118 4 120 12 123 C22 127 32 132 42 138 C71 159 96 184 117 212 C129 231 141 250 148 270 C154 291 151 310 136 326 C132 329 129 331 127 335 C126 336 125 337 124 338 C125 339 125 340 126 341 C140 354 151 368 160 383 L160 383 Z M129 286 C127 270 120 255 111 241 C89 205 63 174 29 148 C19 142 11 136 1 132 C-3 130 -8 129 -12 128 C-17 128 -19 128 -21 133 C-21 135 -22 139 -22 143 C-21 155 -16 167 -11 179 C-1 198 13 215 28 232 C46 252 63 273 82 293 C82 293 82 293 82 293 C90 303 116 328 116 328 L119 326 L119 326 C130 315 133 302 129 286 L129 286 Z M117 342 C111 347 104 352 98 357 C88 366 87 378 95 392 C104 408 120 419 138 428 C141 429 143 429 145 429 C145 429 146 430 147 430 C159 431 164 428 162 417 C162 412 160 406 157 400 C149 383 140 368 127 353 C125 351 117 342 117 342 L117 342 Z " />
<glyph glyph-name="nine" unicode="9" horiz-adv-x="157" d="M32 123 C33 123 34 124 36 125 C36 125 37 125 38 126 C38 126 38 126 38 126 C40 127 42 128 44 130 C83 154 109 213 110 214 C116 229 120 240 120 241 L147 318 L147 318 L147 318 L150 329 C150 330 150 330 151 331 L156 347 C156 347 147 350 140 343 L140 343 C139 342 138 341 137 340 C134 337 131 334 128 331 C119 323 111 315 102 307 C99 305 74 284 63 288 C62 288 62 288 62 288 C62 288 62 288 61 288 C61 288 61 288 61 288 C60 290 58 292 57 294 C56 296 56 297 55 299 C52 311 53 324 57 337 C61 357 70 375 80 393 C87 404 95 414 105 422 C116 431 122 429 124 415 C126 404 125 394 120 383 C119 381 119 379 118 377 C124 374 126 374 128 379 C129 383 131 387 132 391 C135 401 136 412 133 421 C128 433 117 439 103 434 C98 432 93 430 89 426 C79 420 71 411 65 401 C51 381 41 360 36 337 C33 323 31 308 36 294 C36 293 37 291 37 290 C39 285 50 266 78 280 C107 295 136 330 136 330 L125 301 C116 278 107 254 97 230 C89 210 79 190 66 172 C56 158 44 146 29 136 C29 136 29 136 29 136 C28 136 27 135 27 135 C26 135 26 134 26 134 C25 134 25 134 25 134 C5 122 -3 134 -5 137 C-18 165 13 182 13 182 C11 186 7 185 3 184 C3 184 3 184 2 183 C0 182 -24 165 -14 135 C-13 134 -2 107 32 123 C32 123 32 123 32 123 L32 123 Z " />
<glyph glyph-name="colon" unicode="&#x3a;" horiz-adv-x="110" d="M38 212 C38 218 35 221 29 221 C19 221 10 212 10 202 C10 198 12 196 15 195 C26 191 38 200 38 212 L38 212 Z M55 263 C55 270 52 273 45 273 C36 273 27 264 27 254 C27 250 29 248 32 247 C43 243 55 252 55 263 L55 263 Z " />
<glyph glyph-name="semicolon" unicode="&#x3b;" horiz-adv-x="108" d="M32 222 C28 222 25 221 24 217 C21 208 19 199 16 191 C13 178 9 166 6 153 C6 152 6 150 6 149 C10 145 15 146 18 151 C19 152 20 154 20 155 C25 170 29 184 34 198 C36 203 38 209 39 213 C39 218 37 221 32 222 L32 222 Z M50 273 C41 273 32 264 32 254 C32 250 34 248 37 247 C48 243 60 252 60 263 C60 270 57 273 50 273 L50 273 Z " />
<glyph glyph-name="less" unicode="&#x3c;" horiz-adv-x="213" d="M184 294 C179 300 172 297 165 294 C126 277 87 258 49 236 C43 232 37 229 32 225 C27 221 23 216 24 210 C25 204 26 196 29 192 C35 183 41 175 49 170 C73 153 99 137 124 120 C126 119 128 121 131 121 C131 122 132 124 132 126 L41 196 L54 204 C55 205 56 206 57 206 C63 210 69 214 75 218 L76 218 L76 218 C85 223 94 229 103 234 C128 249 154 263 179 278 C187 283 188 288 184 294 L184 294 Z " />
<glyph glyph-name="equal" unicode="&#x3d;" horiz-adv-x="205" d="M116 257 C116 257 116 257 116 257 C103 257 90 257 78 256 C64 255 50 255 36 253 C33 253 31 252 30 251 C31 250 31 248 33 247 C38 243 44 242 51 242 C72 243 94 243 115 244 C130 244 144 246 158 247 C160 247 162 248 163 249 C163 250 162 252 161 253 C156 256 150 257 144 257 C135 258 125 257 116 257 L116 257 Z M99 207 C99 207 99 206 99 206 C87 206 74 206 61 205 C47 205 33 204 19 203 C17 202 15 201 13 200 C14 199 15 197 16 196 C21 193 27 191 34 192 C56 192 77 192 99 193 C113 194 127 195 141 196 C143 197 145 197 146 199 C146 199 145 201 144 202 C139 206 133 207 127 207 C118 207 109 207 99 207 L99 207 Z " />
<glyph glyph-name="greater" unicode="&#x3e;" horiz-adv-x="203" d="M-13 124 C-9 118 -1 120 6 123 C44 138 82 154 120 174 C126 177 132 180 137 183 C143 187 146 192 145 198 C144 204 143 212 140 217 C134 225 128 234 120 239 C95 258 70 275 45 293 C43 294 40 293 38 293 C38 291 37 289 37 288 L128 213 L115 206 C114 205 113 204 112 204 C106 200 100 197 94 194 L94 193 L94 193 C85 188 76 183 66 179 C42 166 17 153 -8 140 C-16 136 -17 131 -13 124 L-13 124 Z " />
<glyph glyph-name="question" unicode="&#x3f;" horiz-adv-x="235" d="M324 665 C319 685 300 698 275 698 C262 699 249 697 237 693 C214 687 192 678 171 668 C152 658 134 647 119 633 C110 624 103 614 100 603 C99 599 99 595 101 592 C103 588 108 586 112 588 C109 592 111 596 113 600 C117 612 126 622 137 630 C169 655 207 672 249 683 C262 686 275 688 288 686 C303 684 309 678 309 666 C308 656 305 647 300 638 C290 614 277 592 263 570 C242 537 221 505 201 471 C179 437 160 401 141 366 C106 299 69 233 34 167 C30 159 27 150 23 142 C23 141 24 140 25 140 C28 138 34 139 36 142 C38 145 40 147 41 150 C67 196 92 241 117 287 C146 339 176 390 208 441 C235 483 262 525 289 567 C301 586 312 606 319 627 C324 640 326 652 324 665 L324 665 Z M12 106 C9 106 8 105 7 103 C4 98 2 94 0 89 C-3 83 -6 76 -6 69 C-6 68 -6 68 -6 68 C-7 65 -5 64 -2 64 C1 63 2 64 3 66 C4 70 6 74 8 78 C11 85 15 93 19 100 C20 101 20 103 19 103 C18 105 15 106 12 106 L12 106 Z " />
<glyph glyph-name="at" unicode="&#x40;" horiz-adv-x="240" d="M115 227 C115 227 115 227 115 227 C114 223 113 220 112 217 C108 205 103 192 102 179 C102 170 105 163 111 159 C116 156 122 155 128 156 C136 158 144 164 150 171 C164 185 174 200 183 217 C203 252 220 288 225 329 C227 344 226 359 222 373 C218 391 207 404 190 409 C177 412 165 413 152 410 C117 404 84 387 56 358 C15 317 -9 265 -17 206 C-19 184 -19 161 -17 139 C0 43 119 55 152 134 C153 136 153 139 154 140 C152 140 149 141 148 140 C146 140 143 139 142 137 C138 130 133 123 130 117 C121 105 110 96 98 90 C86 84 73 79 61 81 C33 84 15 102 6 131 C-5 164 -2 198 6 233 C13 260 24 285 38 309 C61 347 92 377 131 393 C147 400 165 405 182 403 C194 401 203 395 207 383 C213 372 215 359 215 346 C213 325 209 304 201 283 C190 248 174 217 151 188 C145 181 137 172 127 168 C123 166 121 167 122 171 C122 178 123 184 124 189 C128 208 136 225 144 242 C148 252 152 263 157 273 C157 274 157 277 156 278 C152 283 144 283 140 279 C137 273 132 267 128 262 C122 255 117 248 112 241 C112 248 112 254 112 261 C110 281 94 283 83 275 C80 271 74 268 71 264 C60 251 53 236 46 219 C41 210 39 201 38 190 C38 178 43 171 53 170 C59 168 67 170 73 176 C78 182 84 188 89 194 C98 205 106 216 115 227 L115 227 Z M99 271 C105 262 104 239 96 227 C96 226 97 225 98 224 C85 209 74 192 57 181 C56 189 57 197 60 203 C66 226 77 246 90 264 C93 266 95 269 99 271 L99 271 Z " />
<glyph glyph-name="A" unicode="A" horiz-adv-x="595" d="M595 271 C552 259 508 247 465 236 C465 238 466 239 467 241 C467 241 467 241 467 241 C477 267 482 281 483 286 C484 287 484 288 484 289 C484 289 484 289 484 289 C495 324 507 358 517 393 C534 453 548 515 551 578 C552 603 551 628 544 652 C538 678 526 700 505 717 C484 733 460 739 435 741 C411 742 387 740 364 735 C336 730 309 722 282 713 C231 695 182 673 136 644 C110 629 86 611 63 590 C50 578 37 565 29 548 C26 543 24 537 24 530 C25 526 27 524 31 523 C32 523 34 523 33 526 C31 534 35 541 39 547 C48 563 62 577 76 589 C103 611 133 630 163 648 C200 668 237 685 277 699 C318 714 359 725 403 729 C423 730 442 730 462 725 C499 717 523 695 531 657 C536 633 536 610 534 586 C531 555 526 525 519 494 C502 419 478 346 452 274 L452 274 C452 273 452 271 451 270 C451 270 451 270 451 269 L444 252 C444 252 444 251 444 251 C443 249 442 246 441 244 C441 244 440 242 440 242 C439 237 437 232 435 228 C396 217 357 207 318 196 C239 175 160 153 82 128 C83 131 85 134 86 137 C86 137 86 137 86 138 C86 138 87 139 87 139 C87 139 87 139 87 139 C88 141 89 143 89 145 C89 145 92 150 92 150 L95 157 C95 157 95 157 95 157 C98 162 99 167 102 171 C128 227 155 284 182 340 C202 382 224 423 245 464 C255 484 265 504 275 524 C281 537 286 550 291 564 C293 569 290 573 285 575 C284 576 281 576 281 575 C279 572 277 569 275 566 C274 563 274 560 273 557 C256 526 238 494 221 462 C199 418 176 374 155 329 C129 274 105 219 80 164 L78 160 C77 158 76 156 76 154 C75 154 75 154 75 154 L61 123 C61 122 61 122 60 121 C56 120 51 118 47 117 C21 108 -5 99 -31 90 C-44 85 -57 81 -70 76 C-82 72 -93 68 -104 62 C-106 60 -109 58 -112 56 L-112 56 C-113 56 -113 56 -114 55 C-120 51 -143 33 -130 12 C-121 -1 -95 -13 -86 -16 C-66 -24 -45 -31 -25 -39 C-21 -40 -17 -42 -13 -43 C-14 -45 -14 -46 -15 -46 C-20 -58 -25 -70 -31 -82 C-48 -123 -66 -163 -84 -204 C-88 -213 -92 -224 -96 -234 C-97 -236 -96 -238 -94 -239 C-91 -240 -88 -240 -85 -240 C-84 -240 -83 -238 -82 -238 C-80 -232 -79 -227 -76 -222 C-54 -172 -32 -123 -10 -73 C-6 -65 -2 -57 1 -49 C10 -52 18 -56 26 -60 C58 -73 88 -91 118 -109 C133 -117 148 -125 163 -132 C183 -142 205 -144 227 -139 C249 -134 266 -122 282 -108 C304 -88 321 -65 336 -40 C372 17 400 77 426 139 C438 167 449 196 460 224 C506 237 552 249 598 261 C604 263 602 272 595 271 L595 271 Z M-10 -36 C-35 -26 -60 -17 -85 -8 C-108 2 -116 9 -118 13 C-121 17 -122 21 -121 25 C-120 28 -115 51 -59 70 C-58 70 -58 71 -57 71 C-56 71 -56 71 -55 71 C-19 84 18 97 55 109 C33 61 12 13 -10 -36 L-10 -36 Z M329 -3 C313 -31 297 -59 276 -84 C265 -97 253 -109 239 -118 C216 -132 193 -134 169 -124 C155 -118 141 -110 128 -103 C99 -86 71 -69 40 -56 C29 -50 17 -46 5 -40 C9 -32 13 -24 16 -15 C35 26 54 67 73 108 C73 108 73 108 73 108 C74 111 75 114 76 116 C107 126 137 135 168 144 C255 170 343 193 430 216 C401 141 368 68 329 -3 L329 -3 Z " />
<glyph glyph-name="B" unicode="B" horiz-adv-x="612" d="M203 515 C205 522 207 531 212 536 C212 537 212 538 212 538 C213 542 214 545 215 549 C218 559 221 570 225 581 C226 584 225 587 223 589 C221 591 218 592 216 593 C214 594 212 593 211 590 C199 560 187 530 176 500 C152 439 131 376 111 312 C80 216 50 119 20 23 C-2 -48 -24 -120 -46 -191 C-50 -204 -53 -218 -56 -231 C-57 -235 -56 -237 -53 -238 C-52 -239 -50 -239 -49 -239 C-45 -239 -42 -238 -41 -233 C-37 -222 -34 -210 -30 -199 C-7 -126 16 -53 39 20 C62 94 86 169 110 243 C139 335 171 425 203 515 L203 515 Z M612 270 C558 243 503 216 449 188 C449 191 449 194 448 198 C446 219 439 238 435 247 C433 252 431 258 428 263 C409 295 381 317 347 332 C329 341 309 346 289 351 C287 352 284 353 281 354 C282 359 284 362 289 367 C304 382 319 397 335 412 C382 454 428 497 471 544 C491 566 511 588 527 613 C537 627 545 641 550 657 C555 675 554 692 541 707 C533 717 523 724 511 728 C493 735 475 737 456 738 C434 738 411 737 389 734 C356 730 325 723 293 714 C247 701 201 685 157 664 C111 643 67 619 25 590 C-10 567 -43 542 -73 513 C-89 498 -104 482 -118 466 C-131 451 -143 435 -150 415 L-150 408 C-147 403 -142 401 -136 401 C-135 401 -134 403 -133 403 C-134 405 -134 406 -136 407 C-136 407 -137 407 -137 407 C-141 408 -141 409 -140 412 C-138 418 -136 423 -133 428 C-120 449 -104 467 -88 484 C-57 516 -22 544 14 569 C71 609 132 642 196 668 C263 695 331 715 403 722 C430 725 458 726 485 722 C498 720 511 717 523 710 C534 704 539 695 538 683 C537 669 531 656 524 644 C511 621 494 601 477 581 C443 542 406 507 369 471 C340 443 312 415 283 387 C278 381 273 374 268 367 C264 360 266 355 272 350 C277 345 284 343 290 341 C305 336 319 333 333 327 C375 312 403 285 417 247 L417 247 C417 247 417 246 418 245 C420 238 422 230 424 223 C427 210 429 195 428 180 C428 180 428 180 428 180 C428 179 428 177 428 176 C387 154 346 131 306 106 C221 53 137 -8 82 -93 C66 -118 51 -144 49 -174 C49 -185 51 -198 55 -208 C61 -221 76 -241 115 -239 C118 -239 120 -239 123 -239 C123 -239 123 -239 123 -239 C136 -237 149 -234 162 -230 C204 -216 241 -192 275 -163 C351 -96 404 -13 435 83 C445 113 451 145 450 177 C505 206 561 234 617 262 C623 265 618 273 612 270 L612 270 Z M422 119 C411 68 391 21 365 -25 C339 -71 307 -113 268 -150 C235 -181 198 -206 155 -221 C141 -226 128 -229 113 -230 C72 -232 63 -202 61 -194 C59 -187 59 -181 59 -174 C61 -148 75 -123 88 -102 C115 -60 148 -24 185 8 C222 40 263 67 304 93 C344 119 386 142 428 165 C427 150 425 134 422 119 L422 119 Z " />
<glyph glyph-name="C" unicode="C" horiz-adv-x="545" d="M-21 -104 C-21 -108 -21 -113 -21 -117 C-20 -138 -17 -159 -9 -180 C1 -205 16 -224 41 -235 C63 -244 85 -243 106 -237 C134 -229 158 -215 181 -199 C228 -166 269 -126 307 -83 C335 -52 362 -20 387 13 C407 38 427 64 443 93 C444 96 444 98 441 100 C437 103 436 103 434 99 C433 98 432 96 431 95 C423 82 414 69 405 57 C382 27 359 -2 335 -31 C312 -58 288 -84 263 -110 C235 -140 205 -167 171 -191 C150 -206 127 -219 103 -226 C88 -231 73 -233 58 -229 C38 -225 25 -211 16 -193 C7 -174 3 -155 0 -135 C-3 -104 -1 -73 2 -43 C5 -10 11 23 19 56 C34 117 55 177 79 235 C107 301 140 364 176 425 C205 472 236 518 270 561 C283 579 298 596 312 612 C324 625 336 638 348 650 C362 663 376 676 391 688 C406 701 423 712 442 720 C449 722 456 725 465 724 C468 723 471 722 472 717 C472 713 473 708 473 704 C472 691 471 678 468 666 C458 621 446 576 433 532 C416 478 398 424 374 373 C373 370 374 367 377 365 C380 364 382 363 384 367 C393 382 401 398 407 415 C419 448 431 481 442 515 C458 561 471 609 482 657 C486 673 489 688 487 705 C485 724 469 743 445 739 C432 736 419 730 407 722 C377 704 351 679 325 654 C314 643 304 631 294 620 C280 603 265 587 252 570 C237 551 223 533 209 513 C176 466 145 416 117 364 C89 311 64 258 43 202 C17 133 -4 64 -15 -10 C-19 -41 -22 -72 -21 -104 L-21 -104 Z " />
<glyph glyph-name="D" unicode="D" horiz-adv-x="610" d="M201 574 C204 581 205 590 210 596 C210 596 210 597 210 597 C211 601 212 605 213 608 C216 619 220 629 223 640 C224 643 224 646 221 648 C219 650 216 652 214 653 C212 653 210 652 209 649 C197 619 186 590 174 560 C150 498 129 435 109 371 C78 275 48 179 18 82 C-4 11 -26 -61 -48 -132 C-52 -145 -54 -159 -58 -172 C-59 -176 -58 -178 -55 -179 C-54 -180 -52 -180 -51 -180 C-47 -180 -44 -179 -43 -174 C-39 -163 -35 -151 -32 -140 C-9 -67 14 6 37 79 C61 154 84 228 108 302 C138 394 169 484 201 574 L201 574 Z M547 526 C527 587 492 638 437 674 C391 704 340 719 285 724 C254 726 224 725 193 721 C162 717 132 709 102 700 C55 684 10 664 -32 638 C-75 612 -115 582 -149 546 C-163 531 -176 515 -186 497 C-190 489 -194 480 -194 470 C-194 465 -191 463 -186 463 C-184 463 -182 464 -183 467 C-184 469 -184 472 -184 474 C-182 479 -181 484 -178 488 C-170 506 -157 521 -144 535 C-111 570 -73 599 -32 624 C3 646 40 664 78 678 C123 695 168 706 216 711 C246 713 276 713 305 709 C336 705 366 698 394 685 C436 667 472 639 498 600 C526 558 538 510 541 459 C542 426 540 394 534 361 C526 313 512 266 492 221 C468 164 437 110 402 59 C398 51 393 46 384 45 C382 45 381 44 379 44 C342 33 307 18 272 2 C214 -24 158 -55 104 -87 C79 -102 55 -118 34 -139 C21 -152 10 -166 3 -184 C-1 -196 -2 -208 6 -220 C13 -230 23 -235 35 -238 C49 -241 64 -240 78 -237 C107 -231 134 -219 159 -204 C210 -176 256 -139 298 -99 C320 -77 341 -55 362 -32 C363 -30 364 -29 365 -28 C379 -12 392 5 404 21 C433 60 458 100 460 103 C461 104 462 105 462 106 C495 160 522 217 541 277 C553 318 561 359 563 401 C564 444 560 485 547 526 L547 526 Z M359 0 C326 -41 291 -80 252 -115 C215 -148 176 -178 133 -201 C112 -211 92 -220 69 -225 C58 -227 48 -229 37 -227 C23 -224 16 -214 18 -200 C21 -185 28 -172 37 -160 C57 -137 80 -119 106 -103 C156 -72 206 -44 259 -18 C299 1 339 19 382 33 C382 33 383 33 383 33 C383 33 384 32 384 32 C376 22 367 11 359 0 L359 0 Z " />
<glyph glyph-name="E" unicode="E" horiz-adv-x="591" d="M591 270 C561 243 530 216 501 188 L501 188 L488 176 L462 152 L462 152 L432 124 C430 122 427 120 425 118 C380 77 335 36 290 -4 C220 -65 150 -125 76 -181 C59 -194 42 -208 22 -218 C15 -221 8 -224 0 -226 C-11 -229 -18 -225 -23 -215 C-26 -209 -27 -202 -27 -195 C-27 -180 -24 -165 -20 -151 C-11 -121 2 -93 17 -66 C72 32 139 122 217 204 C242 230 267 256 293 282 C300 290 308 298 312 308 C316 316 315 323 308 328 C303 330 299 333 294 334 C279 337 264 336 248 336 C218 337 188 336 158 337 C147 337 136 339 125 341 C98 348 90 366 93 389 C94 401 97 412 102 423 C113 449 128 473 144 495 C174 536 207 573 243 607 C279 641 317 673 359 699 C378 711 397 722 418 728 C425 730 432 730 439 731 C444 731 448 728 449 723 C450 717 450 712 450 706 C448 692 443 679 438 666 C425 635 409 605 392 575 C374 543 356 510 339 477 C333 467 328 456 323 446 C322 443 322 441 325 440 C327 440 330 439 331 442 C336 450 340 457 344 464 C372 514 401 563 429 613 C439 630 448 649 455 667 C461 681 465 695 465 710 C465 724 460 733 447 739 C435 744 423 743 411 740 C391 736 373 727 355 717 C318 696 284 670 252 643 C199 598 152 549 113 492 C97 468 82 443 74 415 C70 402 68 389 70 377 C73 357 85 344 103 336 C120 328 139 325 158 324 C179 322 200 322 221 322 C242 322 264 322 285 322 C287 322 289 322 292 322 C291 319 291 316 290 314 C287 310 284 305 281 301 C268 287 254 272 241 259 C210 227 179 195 150 161 C92 93 41 21 -1 -58 C-17 -89 -32 -120 -41 -154 C-46 -172 -49 -189 -47 -207 C-44 -226 -32 -237 -12 -238 C2 -239 15 -235 28 -229 C48 -220 66 -207 83 -194 C134 -156 183 -116 231 -74 C257 -52 283 -29 309 -6 C370 48 495 169 495 169 C529 202 563 233 598 263 C603 267 596 274 591 270 L591 270 Z " />
<glyph glyph-name="F" unicode="F" horiz-adv-x="460" d="M388 339 C385 344 381 346 378 346 C367 346 357 346 347 345 C311 341 275 336 238 332 C236 331 233 331 230 331 C231 333 232 335 232 337 C254 400 276 463 297 526 C303 544 308 562 313 580 C314 586 313 591 310 595 C307 598 305 599 303 593 C292 564 281 535 269 506 C247 449 228 391 208 332 C207 329 206 328 204 327 C155 320 106 310 59 291 C52 289 45 285 38 282 C36 281 36 279 37 276 C39 273 41 271 44 271 C48 272 53 273 57 274 C96 283 135 292 174 301 C182 303 190 304 199 306 C199 303 198 302 198 300 C181 249 165 197 148 145 C130 86 112 27 94 -32 C81 -72 69 -112 56 -152 C50 -173 43 -193 36 -214 C35 -218 36 -219 38 -221 C43 -225 48 -223 51 -216 C51 -214 52 -212 53 -210 C65 -172 78 -134 91 -96 C114 -25 137 47 161 118 C181 181 202 244 222 307 C223 310 224 311 226 311 C252 315 277 319 303 323 C325 326 348 329 370 331 C375 332 381 333 386 329 C388 328 389 330 389 333 C389 335 388 337 388 339 L388 339 Z M824 690 C823 700 818 707 812 712 C803 720 792 723 781 727 C755 734 729 736 703 737 C664 739 625 738 586 735 C533 730 479 722 426 711 C346 694 266 671 188 640 C139 621 90 598 42 570 C15 554 -13 536 -38 511 C-48 502 -57 490 -67 479 C-69 477 -68 475 -67 473 C-65 469 -62 469 -58 472 C-46 484 -34 496 -21 506 C5 527 33 544 61 560 C107 585 153 606 201 624 C253 643 305 659 358 673 C422 689 487 701 552 709 C597 714 642 718 687 717 C707 716 727 715 747 713 C765 711 783 707 799 700 C805 697 811 694 815 688 C812 682 808 679 803 675 C775 656 746 641 716 629 C712 627 708 624 704 622 C701 620 701 616 702 613 C703 611 704 609 706 610 C714 613 722 616 731 620 C752 628 773 639 794 652 C802 657 810 662 818 668 C823 673 825 681 824 690 L824 690 Z " />
<glyph glyph-name="G" unicode="G" horiz-adv-x="638" d="M569 325 C568 323 568 322 568 321 C563 307 559 293 554 279 C531 213 501 151 465 92 C436 46 405 3 369 -38 C368 -39 366 -40 365 -41 C351 -42 336 -43 322 -45 C281 -50 240 -57 199 -66 C175 -71 151 -76 128 -86 C100 -98 74 -114 52 -138 C40 -152 30 -167 27 -186 C26 -197 28 -207 35 -215 C44 -226 57 -230 70 -231 C91 -233 113 -229 133 -223 C168 -213 201 -197 233 -178 C288 -144 337 -102 381 -53 C383 -50 385 -49 389 -49 C395 -49 402 -48 408 -48 C420 -48 431 -49 442 -52 C448 -54 450 -57 449 -64 C449 -68 453 -72 456 -71 C459 -71 460 -68 460 -64 C460 -56 456 -51 450 -48 C445 -45 440 -43 435 -42 C422 -41 409 -40 396 -39 C395 -39 394 -39 393 -39 C394 -38 394 -37 394 -37 C447 25 491 92 527 164 C549 207 568 252 580 298 C584 313 588 328 588 343 C588 344 587 346 587 346 C583 350 579 350 575 346 C573 345 571 343 570 341 C553 327 535 313 519 298 C482 265 445 232 408 198 C372 167 337 135 300 106 C261 74 220 44 177 19 C159 9 141 0 121 -5 C106 -9 91 -8 79 2 C70 10 63 20 59 32 C48 59 45 88 46 118 C47 159 55 200 66 240 C77 282 93 323 111 363 C140 427 174 487 216 543 C251 591 290 636 335 673 C356 689 378 704 402 715 C423 724 443 730 465 728 C480 726 492 719 501 707 C509 696 513 684 515 670 C519 646 517 622 512 598 C502 559 490 520 471 484 C465 472 458 460 447 451 C446 450 445 448 444 447 C446 446 448 445 450 445 C450 445 451 446 452 446 C456 449 460 452 464 455 C475 466 483 479 491 493 C503 515 511 539 518 563 C524 582 528 601 530 621 C532 644 530 667 522 688 C513 711 498 729 474 737 C457 743 438 742 419 737 C390 730 364 715 339 697 C298 668 263 633 231 594 C186 541 149 482 116 420 C94 379 75 336 60 292 C47 253 36 214 30 173 C25 140 23 107 27 74 C29 53 34 33 44 15 C55 -4 70 -15 91 -18 C108 -20 126 -18 143 -12 C169 -3 194 10 217 25 C258 52 297 82 335 115 C381 154 426 195 472 236 C499 260 526 285 553 310 C558 315 563 319 569 325 L569 325 Z M357 -52 C352 -57 347 -63 342 -68 C307 -106 268 -139 226 -166 C195 -186 163 -203 128 -213 C113 -218 98 -221 82 -221 C73 -222 65 -220 57 -217 C46 -211 41 -200 43 -187 C47 -169 57 -155 69 -142 C91 -119 118 -104 147 -92 C170 -83 193 -78 217 -73 C254 -66 291 -59 329 -54 C338 -53 348 -52 357 -51 C357 -51 357 -52 357 -52 L357 -52 Z " />
<glyph glyph-name="H" unicode="H" horiz-adv-x="518" d="M560 734 C560 735 559 737 557 738 C553 741 551 741 548 736 C547 735 546 733 545 732 C534 707 522 683 512 658 C495 620 478 581 463 542 C429 458 398 372 371 286 L363 283 C295 263 226 243 158 222 C157 222 156 221 154 221 C155 222 155 223 155 224 C173 276 191 328 209 379 C227 431 246 483 264 535 C267 545 270 556 273 566 C275 573 272 577 265 578 C262 579 261 578 260 575 C249 548 238 521 227 494 C193 402 160 310 131 216 C130 214 130 213 128 212 C105 205 83 198 61 191 C40 184 19 178 -3 171 C-5 170 -8 171 -10 171 C-12 171 -13 172 -15 171 C-16 171 -18 170 -18 169 C-19 168 -18 166 -17 165 C-14 163 -10 161 -7 161 C0 160 7 160 14 162 C37 167 59 172 81 178 C95 182 109 186 123 191 C123 190 123 190 123 189 C117 172 112 155 106 138 C84 68 63 -1 41 -70 C38 -78 37 -87 35 -95 C35 -96 35 -98 36 -99 C39 -102 48 -99 50 -94 C52 -85 54 -76 57 -68 C86 20 116 107 145 195 C146 198 148 199 151 199 C216 220 281 241 347 262 C351 263 355 264 359 265 L359 265 L365 267 C355 237 345 206 336 175 C305 76 275 -24 244 -124 C237 -149 230 -175 223 -200 C222 -206 221 -212 221 -217 C221 -226 233 -231 239 -226 C240 -225 241 -223 241 -222 C237 -218 238 -213 239 -209 C245 -188 250 -167 257 -146 C286 -52 315 42 344 136 C359 183 374 229 390 275 L392 276 C392 276 392 276 392 276 C393 276 394 276 394 276 L396 277 L396 277 C414 283 432 288 450 293 C455 295 461 295 466 296 C469 296 471 298 469 301 C469 302 467 304 466 305 C462 308 457 309 451 308 C438 304 424 301 411 297 C408 297 405 296 402 295 L396 293 C396 293 396 293 396 294 C424 374 453 454 483 534 C500 578 518 623 535 668 C542 687 549 707 556 726 C557 728 557 730 560 731 C560 731 561 733 560 734 L560 734 Z " />
<glyph glyph-name="I" unicode="I" horiz-adv-x="233" d="M393 724 C388 728 382 729 376 728 C359 726 343 724 326 721 C292 715 259 708 225 700 C182 691 140 678 98 665 C86 661 75 656 64 652 C59 650 59 647 64 644 C65 643 66 642 68 642 C70 642 72 643 74 644 C90 648 106 651 121 656 C162 668 203 679 245 690 C224 643 204 597 186 549 C156 467 129 384 104 301 C66 178 28 55 -11 -68 C-16 -85 -21 -103 -26 -121 C-26 -122 -26 -123 -26 -124 C-55 -132 -84 -142 -111 -156 C-118 -159 -124 -163 -130 -167 C-132 -168 -133 -169 -131 -171 C-129 -175 -124 -175 -121 -173 C-120 -172 -120 -172 -119 -172 C-104 -166 -90 -159 -75 -154 C-34 -140 7 -127 48 -114 C72 -106 96 -99 120 -92 C124 -91 129 -90 133 -93 C134 -93 135 -93 135 -93 C140 -93 141 -90 139 -86 C136 -83 132 -81 127 -81 C125 -81 122 -81 120 -82 C103 -86 85 -90 68 -95 C43 -102 18 -110 -8 -118 C-1 -96 6 -74 13 -52 C49 58 84 169 120 279 C145 353 170 427 197 501 C214 549 232 598 250 646 C256 661 261 675 265 690 C266 692 266 693 266 695 C293 701 320 707 347 712 C356 713 366 715 375 716 C375 716 375 715 375 715 C373 714 370 713 368 713 C365 712 365 711 367 709 C369 705 373 703 377 704 C383 705 389 708 394 711 C399 715 399 719 393 724 L393 724 Z " />
<glyph glyph-name="J" unicode="J" horiz-adv-x="324" d="M463 714 C459 718 455 721 450 723 C445 724 439 725 433 725 C414 726 394 723 374 720 C358 718 343 716 327 711 C264 694 201 676 138 659 C122 654 106 651 90 647 C88 646 87 645 85 645 C86 643 87 641 88 640 C89 639 91 638 92 638 C95 637 98 637 101 637 C116 637 132 640 147 644 C185 653 224 663 262 673 C272 675 282 678 293 681 C289 671 287 662 284 653 C271 616 257 579 245 541 C224 477 204 413 183 350 C162 284 141 218 120 152 C117 145 114 142 108 140 C105 138 101 137 97 135 C97 135 96 135 96 135 L97 135 C20 102 -55 66 -128 26 C-159 10 -188 -7 -216 -30 C-231 -42 -245 -55 -256 -72 C-264 -84 -269 -98 -270 -113 C-270 -127 -267 -140 -262 -152 C-244 -186 -218 -209 -185 -223 C-159 -235 -131 -236 -103 -227 C-79 -219 -58 -206 -38 -188 C-14 -167 6 -141 24 -113 C48 -75 68 -34 86 7 C102 45 117 84 131 124 C133 129 135 134 137 139 C166 153 214 176 239 194 C239 194 240 194 240 194 C255 203 269 214 284 224 C300 236 315 249 331 263 C335 267 328 274 324 270 C313 261 303 252 292 243 C229 194 142 154 142 154 C148 172 153 186 154 190 C155 193 156 196 158 200 C180 271 203 343 226 415 C247 480 268 545 288 610 C296 634 302 658 307 682 C307 685 308 686 310 686 C320 689 331 691 341 694 C372 704 403 709 435 711 C441 711 447 710 453 710 C453 710 453 709 453 709 C451 706 450 703 447 701 C439 694 431 687 423 681 C421 680 420 679 421 677 C422 672 426 669 431 671 C442 678 453 685 461 696 C466 701 467 708 463 714 L463 714 Z M96 86 C78 37 59 -11 36 -57 C20 -90 3 -122 -20 -151 C-39 -175 -61 -197 -87 -210 C-133 -233 -175 -227 -212 -196 C-226 -185 -238 -171 -246 -154 C-253 -140 -256 -126 -254 -110 C-252 -99 -247 -88 -241 -78 C-229 -61 -214 -47 -198 -35 C-173 -16 -147 0 -120 14 C-46 55 30 92 106 125 C108 125 109 126 111 127 C105 112 101 99 96 86 L96 86 Z " />
<glyph glyph-name="K" unicode="K" horiz-adv-x="430" d="M-96 -20 C-96 -22 -96 -24 -96 -25 C-95 -29 -93 -33 -90 -35 C-84 -38 -79 -39 -73 -38 C-60 -36 -49 -29 -39 -20 C-24 -7 -12 11 0 28 C15 53 27 79 39 106 C40 108 41 110 43 112 C44 114 46 114 47 112 C49 110 51 108 53 105 C86 69 119 32 155 -2 C170 -16 184 -30 199 -45 C216 -61 233 -77 249 -93 C270 -114 291 -134 312 -155 C333 -177 354 -198 375 -219 C382 -226 389 -233 395 -240 C397 -242 399 -241 401 -240 C405 -236 406 -231 402 -226 C395 -217 387 -208 379 -199 C348 -167 318 -136 287 -105 C267 -85 247 -65 227 -45 C211 -29 195 -13 179 3 C163 19 148 35 132 51 C114 69 96 87 78 105 C70 113 62 119 54 126 C56 128 58 130 60 133 C74 151 88 170 102 188 C117 208 132 227 147 247 C159 263 171 278 183 294 C191 305 200 317 209 328 C219 340 228 353 238 365 C246 376 255 386 264 397 C274 411 285 424 296 438 C308 452 319 466 331 480 C341 492 351 503 360 515 C369 525 378 536 387 547 C399 561 411 575 424 589 C437 605 450 620 464 635 C482 655 499 675 517 694 C521 699 526 704 530 709 C534 703 536 703 541 707 C549 713 555 721 560 731 C562 735 562 738 560 740 C557 743 554 743 551 741 C545 736 539 732 534 726 C518 710 503 694 488 677 C469 657 451 636 434 616 C421 602 409 588 397 574 C376 549 355 524 334 500 C320 484 307 469 294 453 C276 432 259 410 242 388 C226 369 211 350 196 330 C176 303 156 277 136 250 C114 220 91 190 68 160 C64 154 59 148 55 143 C55 144 55 144 55 144 C74 191 91 238 107 285 C136 371 165 458 194 544 C207 583 220 622 232 662 C234 668 236 674 237 680 C239 685 237 689 232 691 C228 694 226 693 222 688 C219 683 216 679 213 674 C207 665 202 655 196 645 C195 643 196 641 198 640 C200 639 201 639 203 642 C204 644 205 646 207 648 C209 652 211 655 214 658 C214 657 214 656 213 656 C208 641 202 626 197 612 C178 562 161 512 144 462 C124 402 105 342 84 283 C64 223 43 164 19 106 C16 97 11 90 5 83 C-19 58 -44 35 -70 12 C-80 3 -91 -6 -96 -20 L-96 -20 Z M1 64 C-1 61 -2 58 -4 55 C-13 36 -22 18 -35 2 C-43 -8 -51 -18 -61 -24 C-66 -27 -71 -29 -76 -31 C-79 -32 -82 -31 -84 -28 C-86 -25 -85 -22 -84 -19 C-81 -15 -79 -10 -75 -7 C-64 4 -53 13 -42 24 C-28 37 -15 50 -1 63 C-1 64 0 64 0 64 C0 64 1 64 1 64 L1 64 Z M535 713 C535 713 535 713 536 713 C538 716 540 719 543 722 C543 722 543 722 543 722 C540 719 538 716 535 713 L535 713 Z " />
<glyph glyph-name="L" unicode="L" horiz-adv-x="248" d="M358 -32 C352 -30 346 -28 339 -27 C300 -25 259 -31 219 -37 C200 -40 181 -44 162 -47 C142 -51 121 -55 101 -59 C79 -63 57 -68 35 -73 C9 -80 -16 -87 -42 -94 C-48 -96 -54 -98 -61 -100 C-60 -99 -59 -98 -59 -97 C-41 -69 -25 -39 -11 -9 C26 66 57 143 84 222 C109 297 134 372 158 447 C170 485 182 522 194 560 L215 627 C215 627 215 627 215 627 C217 634 219 640 221 646 C230 675 240 703 249 732 C251 738 250 740 246 742 C242 742 239 740 237 735 C234 731 232 727 230 723 C218 696 208 669 199 641 C197 637 196 634 195 630 L163 539 C128 429 93 319 55 210 C32 144 8 79 -20 16 C-39 -26 -59 -68 -84 -107 C-85 -109 -87 -111 -89 -112 C-105 -120 -122 -128 -138 -136 C-152 -143 -166 -151 -178 -163 C-183 -167 -188 -173 -191 -179 C-198 -189 -197 -199 -189 -203 C-184 -206 -177 -207 -171 -205 C-155 -203 -140 -193 -126 -181 C-109 -166 -93 -147 -79 -127 C-77 -125 -76 -124 -75 -123 C-57 -116 -39 -109 -22 -104 C-2 -98 17 -93 37 -88 C51 -84 67 -81 81 -77 C102 -73 122 -69 142 -65 C163 -61 184 -57 205 -54 C231 -50 257 -46 283 -43 C300 -42 317 -42 333 -42 C337 -42 341 -43 345 -45 C348 -46 348 -48 346 -52 C344 -55 345 -57 347 -57 C349 -57 351 -57 353 -57 C358 -55 363 -49 364 -44 C365 -38 364 -33 358 -32 L358 -32 Z M-107 -142 C-121 -160 -135 -176 -153 -186 C-159 -190 -165 -193 -171 -193 C-174 -193 -177 -192 -177 -188 C-177 -185 -175 -181 -173 -178 C-167 -170 -159 -165 -152 -160 C-135 -151 -119 -143 -103 -134 C-103 -135 -103 -135 -103 -135 C-104 -138 -106 -140 -107 -142 L-107 -142 Z " />
<glyph glyph-name="M" unicode="M" horiz-adv-x="548" d="M601 664 C596 673 588 674 581 667 C580 666 580 666 579 665 C568 651 557 637 547 623 C531 599 515 574 499 550 C478 516 458 481 437 447 C403 388 371 327 341 265 C318 215 295 166 272 116 C255 78 238 40 221 1 C218 -6 214 -13 211 -20 C211 -17 211 -14 212 -11 C217 16 222 44 228 71 C250 161 275 250 303 338 C334 439 370 537 406 636 C411 649 416 663 420 677 C421 682 420 686 416 689 C411 693 407 693 404 689 C401 685 398 682 396 678 C376 645 355 611 335 578 C302 523 270 467 239 410 C202 341 168 271 133 202 C105 146 78 91 50 36 C40 17 28 -2 17 -21 C17 -22 16 -23 14 -25 C14 -23 14 -22 14 -21 C15 -9 15 2 17 14 C22 45 28 75 36 104 C76 264 125 418 188 566 C207 610 228 653 247 697 C252 707 256 718 261 729 C263 734 262 738 258 740 C254 742 251 741 248 737 C242 728 236 719 231 710 C203 660 179 605 157 550 C136 498 116 444 98 390 C63 287 32 183 10 75 C4 47 -1 18 -2 -11 C-3 -19 -2 -26 -1 -34 C-1 -38 2 -40 5 -40 C10 -41 14 -40 18 -37 C22 -33 25 -29 28 -25 C42 -5 53 17 64 39 C98 107 132 176 166 245 C190 291 214 337 238 383 C272 447 308 510 345 571 C357 592 370 613 383 634 C383 634 383 633 384 633 C383 632 383 632 383 631 C371 599 359 568 348 537 C311 430 277 321 246 212 C225 139 206 67 195 -9 C194 -18 193 -28 193 -37 C193 -46 196 -49 203 -47 C209 -46 214 -41 217 -35 C222 -24 228 -13 233 -1 C250 37 266 76 283 115 C312 181 342 247 375 310 C396 350 418 390 440 429 C463 470 487 510 513 548 C530 575 548 602 568 627 C571 631 574 635 578 640 C578 638 577 636 577 635 C562 598 547 562 533 526 C507 458 483 388 461 318 C427 212 395 104 373 -7 C365 -47 357 -98 357 -98 C355 -111 352 -124 351 -136 C347 -157 345 -178 342 -199 C341 -209 341 -219 341 -229 C341 -233 343 -236 346 -237 C352 -240 361 -234 363 -227 C365 -221 364 -215 360 -212 C358 -211 357 -209 358 -206 C360 -186 362 -166 365 -147 C368 -132 370 -118 373 -103 C373 -103 374 -95 377 -81 C383 -49 390 -16 397 16 C398 20 399 24 400 26 C400 27 400 27 400 27 C401 31 402 36 403 40 C428 146 460 249 494 351 C523 435 556 517 586 600 C592 616 597 632 602 649 C603 654 603 659 601 664 L601 664 Z " />
<glyph glyph-name="N" unicode="N" horiz-adv-x="450" d="M21 5 C20 5 20 5 20 6 C20 8 20 10 20 13 C26 38 31 64 37 89 C62 179 89 268 118 356 C140 424 165 491 191 556 C205 592 220 628 234 664 C236 670 238 676 240 682 C241 686 239 688 235 689 C233 690 230 690 229 686 C221 670 214 653 206 637 C183 588 163 537 144 486 C106 385 71 283 40 180 C24 126 9 72 -1 16 C-2 7 -3 -2 -3 -11 C-3 -16 0 -19 4 -20 C14 -22 22 -19 28 -10 C33 -4 38 2 42 9 C59 37 76 65 92 94 C131 162 170 231 211 297 C232 330 253 363 274 396 C302 439 332 481 362 523 C376 541 389 559 403 576 C418 595 433 615 449 633 C463 650 478 667 494 683 C498 688 504 692 509 696 C509 696 509 695 510 695 C507 686 504 676 501 667 C483 624 466 580 448 537 C418 463 387 388 362 312 C334 228 307 143 280 58 C258 -11 237 -80 220 -151 C216 -166 214 -182 212 -198 C211 -201 212 -204 212 -207 C214 -215 225 -218 232 -213 C233 -212 234 -210 235 -209 C234 -208 232 -206 231 -206 C228 -207 227 -205 227 -202 C227 -200 227 -198 227 -196 C229 -183 231 -171 234 -159 C244 -121 254 -83 265 -46 C280 3 296 53 312 102 C333 168 354 235 379 300 C407 372 436 444 464 516 C479 557 496 597 511 638 C518 655 524 672 526 690 C527 699 525 706 519 711 C512 716 505 715 499 710 C491 703 483 696 475 688 C452 663 430 637 409 610 C389 584 369 557 349 531 C326 499 304 467 282 434 C232 361 186 286 141 210 C108 154 76 97 43 41 C36 29 28 17 21 5 L21 5 Z " />
<glyph glyph-name="O" unicode="O" horiz-adv-x="618" d="M297 415 C297 416 297 416 298 417 C296 418 295 420 294 421 C289 424 286 429 286 436 C286 443 287 450 289 457 C295 476 304 493 313 510 C328 539 346 567 364 594 C378 614 391 635 407 653 C431 680 457 702 486 714 C505 721 523 724 541 720 C566 713 583 694 595 666 C608 635 611 600 610 562 C609 533 605 503 599 473 C591 435 579 399 566 362 C545 304 518 250 488 197 C435 106 375 24 306 -47 C272 -82 236 -112 196 -134 C167 -150 137 -159 108 -154 C90 -151 75 -141 62 -126 C47 -106 38 -82 33 -54 C26 -15 27 25 31 67 C34 101 40 136 48 171 C58 217 71 262 87 307 C102 353 120 398 140 442 C162 492 187 540 216 585 C235 615 256 643 280 667 C289 676 299 684 309 687 C317 691 319 690 319 677 C319 667 316 658 312 648 C311 645 312 644 314 643 C315 642 317 642 318 645 C321 651 324 656 326 662 C333 675 332 687 326 694 C321 700 315 702 307 701 C298 700 289 695 281 689 C262 674 245 655 230 635 C202 598 179 558 157 516 C105 418 65 314 37 205 C22 147 11 89 8 30 C7 3 8 -24 12 -50 C16 -77 24 -102 37 -123 C56 -154 83 -168 116 -169 C130 -169 145 -167 159 -163 C186 -155 213 -143 238 -125 C281 -95 321 -56 359 -14 C407 41 450 101 489 166 C526 227 558 292 583 361 C597 399 608 438 615 477 C621 511 625 545 624 578 C623 611 618 642 607 669 C583 726 532 749 480 726 C444 711 412 682 384 645 C355 605 328 562 303 517 C292 496 282 476 277 453 C272 434 279 418 292 414 C294 414 296 415 297 415 L297 415 Z " />
<glyph glyph-name="P" unicode="P" horiz-adv-x="550" d="M224 563 C224 563 224 564 224 565 C225 568 226 572 227 575 C230 586 233 596 237 607 C238 610 237 613 235 616 C233 617 230 619 228 620 C226 621 224 619 223 617 C211 587 200 557 188 527 C164 465 143 402 123 338 C92 242 62 146 32 50 C10 -22 -12 -93 -34 -165 C-38 -178 -41 -192 -44 -205 C-45 -209 -44 -211 -41 -212 C-40 -212 -38 -213 -37 -213 C-33 -213 -30 -211 -29 -207 C-25 -195 -21 -184 -18 -173 C5 -100 28 -27 51 46 C75 121 98 195 122 269 C152 361 183 452 215 541 C218 549 219 557 224 563 L224 563 Z M554 655 C540 678 522 695 501 709 C467 730 430 740 392 743 C371 744 351 744 331 741 C306 739 282 733 257 725 C229 716 201 704 174 688 C151 674 128 658 107 640 C91 626 76 611 62 595 C52 582 42 569 34 554 C30 546 27 538 27 529 C26 524 29 522 33 522 C34 522 35 523 35 525 C35 527 35 529 35 531 C36 539 40 546 44 552 C54 571 68 587 83 602 C109 629 137 652 167 670 C200 691 235 706 270 716 C309 728 347 732 386 731 C397 729 409 728 421 726 C445 722 467 714 488 702 C510 690 529 675 543 654 C564 622 568 586 557 545 C551 520 539 498 526 477 C508 449 487 425 465 402 C432 370 398 342 362 316 C308 277 253 241 198 207 C181 197 164 187 147 178 C145 177 143 177 140 177 C139 176 137 176 137 175 C136 174 136 172 136 171 C138 166 144 162 148 163 C153 165 158 167 163 169 C195 185 226 204 257 224 C294 248 330 272 367 296 C401 319 434 343 465 372 C495 400 523 431 546 468 C560 492 571 519 576 548 C582 589 574 624 554 655 L554 655 Z " />
<glyph glyph-name="Q" unicode="Q" horiz-adv-x="583" d="M321 696 C318 697 316 698 313 697 C308 696 303 695 299 692 C282 683 269 669 256 653 C244 640 233 625 222 610 C210 592 198 573 186 554 C160 510 136 463 115 414 C86 344 62 270 48 193 C40 155 36 118 34 80 C32 51 33 23 36 -5 C39 -31 44 -56 53 -79 C62 -103 74 -125 92 -140 C118 -164 148 -168 179 -159 C201 -153 221 -142 241 -128 C270 -108 297 -82 321 -54 C322 -52 323 -51 324 -50 C325 -52 325 -53 325 -54 C329 -78 332 -102 337 -126 C342 -154 347 -182 356 -209 C359 -219 362 -229 368 -237 C375 -248 384 -246 391 -241 C395 -238 398 -233 398 -227 C398 -223 396 -221 393 -222 C389 -224 386 -227 386 -233 C385 -232 384 -231 383 -230 C378 -224 375 -217 373 -210 C363 -182 358 -153 353 -124 C348 -95 344 -65 339 -36 C339 -33 339 -32 340 -30 C357 -9 373 13 388 36 C451 136 500 246 535 365 C549 416 560 467 562 521 C564 553 563 584 556 615 C545 665 522 703 484 726 C452 745 419 749 384 739 C365 734 347 725 332 711 C327 707 323 703 321 696 L321 696 Z M321 682 C320 675 320 667 319 660 C314 628 308 595 304 563 C300 534 297 505 295 475 C291 425 290 375 291 325 C291 290 293 255 296 221 C298 189 301 158 304 127 C307 99 310 72 313 44 C315 20 319 -3 321 -27 C322 -28 321 -31 320 -32 C293 -65 264 -96 231 -120 C212 -133 192 -143 171 -148 C132 -156 102 -141 79 -102 C66 -79 58 -54 53 -26 C48 6 47 40 49 73 C51 137 63 198 79 259 C98 329 123 396 153 460 C171 497 190 533 212 566 C220 580 229 593 238 606 C255 629 273 650 294 668 C301 674 308 679 316 682 C317 682 318 682 318 682 C319 682 320 682 321 682 L321 682 Z M336 -12 C335 1 333 12 332 24 C330 42 328 60 326 78 C324 96 323 113 321 131 C319 149 318 167 316 186 C315 206 313 227 313 247 C312 285 311 322 312 359 C313 401 315 444 318 487 C320 520 324 554 327 587 C329 606 332 624 333 643 C334 653 334 662 334 672 C334 679 331 686 327 691 C328 692 329 694 330 695 C333 698 336 702 339 705 C354 718 371 726 389 730 C416 738 443 737 469 725 C506 707 529 675 537 627 C542 598 543 568 542 538 C539 487 530 437 519 388 C502 315 477 247 447 181 C416 113 381 50 339 -8 C338 -9 337 -10 336 -12 L336 -12 Z " />
<glyph glyph-name="R" unicode="R" horiz-adv-x="697" d="M213 536 C213 537 213 538 213 538 C214 542 215 545 216 549 C219 559 223 570 226 581 C227 584 227 587 224 589 C222 591 219 592 217 593 C215 594 213 593 212 590 C200 560 189 530 177 500 C153 439 132 375 112 312 C81 216 51 119 21 23 C-1 -48 -23 -120 -45 -191 C-49 -204 -51 -218 -55 -231 C-56 -235 -55 -237 -52 -238 C-51 -239 -49 -239 -48 -239 C-44 -239 -41 -238 -40 -233 C-36 -222 -32 -210 -29 -199 C-6 -126 17 -53 40 20 C64 94 87 169 111 243 C141 335 172 425 204 515 C207 522 208 531 213 536 L213 536 Z M697 269 C655 196 609 126 560 58 C544 35 528 13 511 -9 C494 -30 477 -52 459 -72 C441 -93 422 -113 402 -132 C388 -146 373 -160 353 -165 C348 -167 342 -167 337 -167 C337 -167 337 -167 337 -167 C336 -167 336 -167 336 -167 C332 -167 328 -166 324 -164 C318 -162 312 -158 306 -152 C295 -142 285 -129 277 -117 C270 -105 266 -96 265 -95 C264 -92 262 -89 261 -86 C247 -57 236 -26 226 5 C218 29 210 52 202 76 C198 86 193 96 188 107 C192 107 196 107 200 108 C222 111 242 119 261 130 C293 149 321 172 348 198 C389 237 425 281 458 327 C489 370 517 416 539 465 C554 498 565 531 568 568 C570 589 568 610 561 630 C549 666 525 692 495 710 C467 726 437 733 407 736 C363 741 321 736 279 727 C218 715 161 692 107 662 C65 639 26 612 -9 580 C-41 551 -71 519 -95 483 C-108 463 -120 443 -128 421 C-131 414 -132 406 -134 399 C-134 396 -134 393 -134 390 C-131 383 -126 380 -121 382 C-119 382 -117 384 -119 386 C-123 391 -122 396 -121 400 C-118 415 -112 427 -106 439 C-90 468 -71 494 -50 518 C-21 552 12 581 48 607 C83 632 120 654 159 671 C216 697 275 715 337 720 C374 724 411 723 448 713 C470 708 490 699 509 685 C527 671 538 653 542 629 C545 609 544 590 541 571 C536 539 525 509 513 481 C489 427 461 378 429 331 C388 272 341 218 288 173 C268 155 247 140 223 129 C211 123 198 118 185 118 C181 118 178 118 175 120 C172 122 169 123 166 123 C163 124 159 124 159 120 C158 117 161 115 163 113 C168 111 170 108 172 104 C174 100 176 96 178 92 C187 71 193 48 200 26 C212 -13 224 -52 242 -88 C250 -105 259 -122 270 -138 C280 -152 292 -165 307 -172 C327 -182 350 -181 369 -171 C378 -166 385 -161 388 -158 C419 -133 447 -103 473 -72 C528 -6 579 64 627 136 C654 178 680 220 706 262 C709 268 701 274 697 269 L697 269 Z " />
<glyph glyph-name="S" unicode="S" horiz-adv-x="490" d="M533 702 C527 711 518 718 507 723 C499 728 489 730 480 732 C474 733 468 732 460 733 C455 732 448 732 440 730 C433 729 426 728 419 726 C409 723 399 720 390 717 C383 714 377 712 370 709 C360 703 349 698 339 693 C336 691 333 690 331 688 C322 682 314 677 305 671 C301 668 296 665 291 661 C285 656 278 651 271 645 C267 642 263 639 258 635 C251 629 244 622 237 615 C231 610 226 606 221 600 C212 592 205 584 197 576 C192 571 187 566 182 561 C175 553 168 544 162 536 C156 530 151 523 146 517 C141 509 135 501 130 492 C124 483 118 474 112 464 C104 449 97 434 92 418 C85 397 82 376 85 354 C89 335 97 318 109 304 C116 296 123 289 131 283 C139 276 148 270 157 264 C164 260 171 256 178 252 C187 247 195 243 204 239 C212 234 221 230 229 226 C237 221 245 217 253 212 C263 207 271 201 280 194 C286 189 291 183 296 177 C306 163 308 148 307 131 C305 120 302 109 298 99 C293 84 286 70 278 57 C273 49 268 41 263 34 C257 25 252 17 246 9 C241 2 236 -4 231 -11 C224 -19 217 -27 211 -36 C207 -41 202 -45 198 -50 C193 -57 187 -64 181 -70 C177 -75 172 -80 168 -85 C162 -92 156 -98 150 -105 C145 -110 140 -115 135 -120 C129 -127 122 -134 116 -140 C111 -145 106 -150 101 -155 C93 -162 85 -169 78 -176 C74 -180 71 -183 67 -186 C60 -191 53 -197 46 -202 C43 -204 41 -206 38 -208 C31 -213 23 -218 15 -220 C13 -221 12 -222 11 -222 C7 -224 5 -223 4 -218 C4 -217 4 -216 4 -215 C5 -204 9 -194 13 -184 C17 -175 22 -165 27 -156 C32 -148 37 -139 43 -131 C46 -126 49 -121 52 -116 C56 -110 61 -103 65 -97 C68 -92 72 -87 75 -82 C78 -77 82 -72 85 -67 C89 -61 93 -56 97 -50 C101 -45 104 -40 107 -36 C110 -32 113 -29 116 -25 C120 -19 124 -13 128 -8 C132 -3 136 2 139 7 C144 13 149 20 154 26 C158 31 162 36 167 41 C173 49 180 58 187 65 C192 71 197 76 203 81 C209 88 216 93 226 94 C229 94 229 96 229 98 C228 101 225 103 221 103 C209 103 201 98 193 91 C188 86 183 81 178 76 C173 71 168 65 163 60 C155 51 147 41 140 31 C133 23 126 14 119 6 C113 -2 107 -10 102 -17 C93 -29 84 -41 75 -53 C68 -63 62 -73 55 -82 C47 -94 39 -106 31 -117 C24 -128 18 -138 11 -149 C4 -160 -2 -172 -7 -185 C-10 -193 -13 -202 -12 -211 C-12 -225 -3 -233 11 -234 C19 -235 26 -233 33 -230 C41 -226 49 -222 57 -217 C67 -209 77 -202 86 -194 C93 -189 100 -183 106 -177 C114 -170 122 -162 130 -155 C138 -148 145 -140 152 -133 C162 -123 172 -112 182 -102 C190 -93 198 -84 206 -75 C215 -65 223 -55 232 -45 C241 -33 251 -22 259 -10 C268 2 276 13 285 25 C294 39 303 54 310 69 C317 85 323 101 325 118 C327 134 325 151 318 166 C311 180 302 191 291 201 C284 207 276 213 268 218 C261 223 254 227 247 232 C239 236 230 240 222 245 C216 248 210 251 205 254 C196 258 188 262 180 266 C175 269 169 272 164 275 C155 280 146 286 137 293 C129 299 122 307 116 315 C109 327 104 340 104 354 C102 383 111 409 123 435 C128 445 133 454 138 463 C145 474 152 485 160 496 C164 503 170 509 175 516 C180 523 185 529 191 536 C195 541 199 546 204 550 C210 557 216 564 223 571 C228 576 233 581 238 586 C245 593 252 599 259 606 C263 610 267 613 271 616 C277 622 283 627 289 632 C294 636 298 639 303 643 C310 648 317 653 324 658 C330 662 336 667 343 670 C354 677 365 683 376 689 C382 692 388 694 394 697 C402 700 409 703 417 706 C422 707 428 709 433 710 C440 712 448 713 455 714 C468 715 481 716 494 713 C502 711 510 709 518 704 C527 697 531 689 533 678 C535 664 533 651 529 637 C524 619 516 602 507 586 C499 571 491 556 482 541 C475 531 468 520 461 510 C454 499 446 489 439 478 C433 470 427 462 421 453 C416 446 410 439 405 432 C401 426 397 421 392 415 C386 407 380 399 374 390 C370 385 366 381 363 376 C358 370 353 363 348 356 C343 350 338 343 334 337 C327 327 320 318 313 308 C308 301 303 294 298 286 C297 284 296 283 298 281 C300 279 303 279 305 282 C307 283 308 285 310 287 C315 294 321 301 327 308 C331 313 335 318 339 323 C344 329 350 336 355 342 C359 347 363 352 367 357 C372 364 377 371 383 377 C387 383 391 388 396 394 C401 400 406 407 411 413 C415 418 419 423 422 428 C427 434 432 441 437 447 C441 453 445 458 449 463 C454 471 460 479 465 487 C470 493 474 499 479 506 C484 514 489 522 495 530 C500 539 505 548 511 557 C519 571 526 586 532 601 C539 617 544 634 546 651 C547 670 544 687 533 702 L533 702 Z " />
<glyph glyph-name="T" unicode="T" horiz-adv-x="248" d="M235 677 C234 673 233 670 232 667 C226 650 220 632 214 615 C208 598 202 580 196 563 C189 544 182 526 176 507 C168 484 159 460 151 436 C143 414 136 391 128 369 C120 346 113 324 106 302 C100 284 94 267 89 250 C83 233 78 216 73 199 C68 183 62 167 57 151 C51 131 45 111 38 91 C32 70 25 49 19 28 C12 8 6 -12 0 -33 C-6 -50 -11 -68 -17 -85 C-24 -109 -31 -132 -38 -156 C-42 -173 -46 -190 -50 -208 C-51 -211 -51 -215 -48 -216 C-44 -218 -40 -218 -37 -216 C-34 -214 -34 -212 -37 -210 C-37 -210 -38 -209 -38 -208 C-37 -205 -37 -201 -36 -197 C-30 -178 -25 -158 -19 -138 C-13 -119 -6 -99 0 -79 C7 -58 13 -37 20 -16 C29 12 39 41 48 69 C54 88 60 108 67 127 C74 149 81 171 89 193 C95 213 102 234 109 254 C118 279 127 305 136 331 C143 350 149 369 156 388 C163 409 171 429 178 450 C183 466 189 481 194 497 C202 519 209 541 217 563 C223 584 230 604 236 625 C241 642 245 660 250 677 C250 678 251 680 252 680 C260 682 269 683 277 684 C286 686 295 687 303 689 C314 690 324 692 335 693 C344 695 353 696 361 698 C371 699 381 701 391 702 C402 704 412 705 422 707 C433 708 443 710 453 711 C463 712 472 714 482 715 C495 717 507 719 520 720 C525 721 529 721 534 721 C543 722 553 722 562 722 C563 722 564 724 565 725 C566 731 561 739 555 739 C548 739 541 739 535 738 C519 737 503 735 487 733 C476 732 465 731 454 729 C444 728 433 727 422 725 C412 724 402 722 391 721 C379 719 367 718 354 716 C345 715 336 713 326 712 C316 711 306 709 296 708 C285 706 274 705 263 703 C254 702 245 700 235 699 C226 697 218 696 209 694 C199 693 190 691 180 689 C172 688 164 687 157 685 C149 684 142 682 135 681 C126 679 118 677 110 676 C103 674 97 673 90 671 C83 670 76 668 69 666 C63 665 56 663 50 662 C37 659 25 656 12 653 C6 651 0 650 -5 648 C-17 645 -28 642 -39 639 C-45 637 -50 636 -55 634 C-66 631 -76 628 -86 625 C-96 621 -105 618 -115 615 C-124 612 -132 609 -141 606 C-146 603 -152 601 -158 598 C-160 597 -162 596 -164 594 C-167 592 -168 589 -166 586 C-165 584 -162 582 -160 583 C-152 586 -143 590 -134 593 C-124 596 -114 599 -103 602 C-92 605 -81 608 -70 611 C-58 614 -45 617 -33 620 C-27 622 -21 624 -15 625 C-3 628 9 631 21 634 C29 636 36 637 43 639 C49 640 56 642 62 643 C69 645 75 646 82 648 C90 650 98 651 106 653 C113 654 120 656 127 657 C134 659 142 660 149 662 C157 663 166 665 174 666 C183 668 191 669 200 671 C204 672 209 672 213 673 C220 674 227 676 235 677 L235 677 Z " />
<glyph glyph-name="U" unicode="U" horiz-adv-x="545" d="M511 484 C511 484 511 484 511 484 C509 480 507 476 505 472 C476 411 447 350 421 286 C400 234 380 183 360 131 C334 60 308 -11 282 -82 C271 -114 260 -147 250 -181 C248 -190 245 -199 245 -209 C245 -211 245 -214 246 -215 C249 -220 254 -221 258 -219 C261 -217 262 -214 260 -211 C260 -209 260 -208 260 -206 C261 -200 263 -194 264 -188 C273 -156 284 -126 294 -95 C321 -19 349 56 378 130 C412 216 448 300 486 383 C524 467 566 547 608 627 C615 640 622 653 629 667 C631 671 631 675 629 678 C627 681 624 683 622 684 C620 686 618 685 616 682 C602 660 588 637 574 615 C553 581 531 547 510 512 C489 478 467 443 446 409 C425 377 405 345 385 314 C366 285 348 256 329 228 C304 191 279 154 254 118 C230 84 206 52 181 20 C162 -4 142 -27 120 -47 C110 -55 100 -64 88 -68 C78 -72 71 -68 66 -57 C62 -49 60 -40 58 -30 C55 -6 56 19 59 44 C63 82 70 121 78 159 C89 213 103 267 118 320 C138 393 161 464 186 534 C207 591 228 646 249 702 C253 711 256 721 259 731 C260 735 259 738 255 740 C252 742 250 741 248 737 C243 727 239 717 234 706 C218 669 203 631 188 593 C159 515 133 437 109 357 C88 287 69 215 54 142 C45 97 38 51 37 4 C37 -13 38 -29 42 -44 C45 -58 50 -70 60 -77 C69 -83 80 -83 91 -80 C103 -77 115 -70 126 -61 C147 -44 166 -23 184 -1 C218 40 250 85 281 131 C305 165 328 199 351 234 C369 263 388 291 407 320 C422 344 437 367 452 391 C468 417 484 442 500 468 C504 474 507 479 511 484 L511 484 Z " />
<glyph glyph-name="V" unicode="V" horiz-adv-x="455" d="M-2 -91 C-2 -107 -3 -124 -3 -141 C-2 -158 -1 -174 2 -190 C5 -204 10 -215 19 -220 C27 -225 35 -224 43 -220 C55 -215 65 -205 74 -194 C89 -174 103 -152 116 -129 C150 -69 183 -8 217 52 C238 89 258 126 279 163 C297 194 315 225 333 256 C352 290 371 324 390 357 C405 384 421 411 436 437 C449 459 461 481 474 503 C485 521 495 540 506 558 C517 576 527 594 538 612 C549 631 561 650 573 669 C584 686 596 703 609 716 C613 720 613 723 609 726 C607 728 605 727 603 725 C591 715 580 701 570 686 C559 669 547 651 536 633 C524 613 511 592 498 570 C484 546 469 521 455 496 C439 470 424 443 408 416 C393 390 378 364 363 338 C345 307 328 277 310 246 C290 211 270 176 250 141 C221 89 191 37 162 -15 C137 -58 113 -102 88 -145 C78 -163 66 -181 53 -195 C49 -201 43 -205 38 -209 C33 -213 28 -211 25 -204 C22 -199 20 -193 18 -187 C14 -168 13 -149 13 -129 C14 -106 15 -84 18 -61 C21 -28 26 4 32 36 C41 90 52 143 64 195 C78 255 93 314 110 372 C126 426 143 478 162 529 C174 562 186 594 200 625 C201 626 202 627 203 627 C204 628 204 629 204 631 C203 637 197 639 194 634 C194 633 193 631 192 630 C181 609 170 585 161 562 C143 518 127 472 112 426 C88 353 67 279 49 203 C35 145 23 87 13 28 C7 -12 2 -51 -2 -91 L-2 -91 Z " />
<glyph glyph-name="W" unicode="W" horiz-adv-x="758" d="M20 -116 C18 -112 17 -108 16 -104 C14 -89 15 -72 17 -56 C19 -25 24 6 31 36 C40 75 48 114 58 153 C68 196 81 239 94 282 C116 356 142 429 171 500 C182 527 194 554 205 581 C210 593 215 605 220 617 C222 621 221 624 218 625 C214 626 213 626 210 622 C210 621 209 620 208 618 C195 594 183 568 171 542 C142 476 117 408 94 339 C72 275 53 210 37 144 C30 114 23 84 17 54 C12 31 8 7 4 -16 C1 -40 -2 -63 -2 -86 C-2 -96 -2 -106 1 -115 C3 -122 7 -126 13 -127 C21 -128 29 -124 37 -118 C41 -114 45 -110 50 -105 C66 -85 81 -63 95 -41 C135 22 173 85 212 148 C254 216 297 284 339 352 C343 359 348 365 352 372 C349 360 346 349 342 338 C326 285 309 232 293 179 C274 114 257 48 245 -19 C238 -58 232 -98 232 -137 C232 -154 234 -171 238 -187 C242 -203 249 -215 262 -221 C272 -225 282 -224 292 -221 C305 -217 316 -211 327 -203 C352 -185 374 -163 395 -138 C435 -92 471 -41 504 12 C528 49 550 87 572 124 C594 162 615 200 635 239 C654 279 673 319 692 359 C699 374 705 389 712 404 C721 425 731 446 740 468 C751 496 763 523 774 551 C789 589 803 626 813 666 C816 678 819 691 820 704 C821 720 816 728 807 732 C796 737 782 725 781 710 C781 705 783 701 787 700 C790 699 792 700 792 704 C793 712 798 719 804 721 C806 722 806 721 806 719 C806 716 807 712 806 709 C805 692 800 675 796 659 C786 624 773 591 760 557 C737 499 712 441 686 385 C674 359 662 332 649 306 C625 256 599 207 572 159 C535 94 496 31 455 -30 C431 -64 408 -97 382 -128 C363 -151 343 -172 321 -190 C311 -198 301 -205 290 -209 C279 -213 270 -210 263 -199 C261 -194 259 -189 257 -184 C252 -166 251 -147 252 -127 C253 -97 256 -66 262 -36 C268 -5 274 27 282 58 C295 115 310 171 327 226 C340 270 354 314 367 358 C370 368 373 379 375 390 C377 397 375 402 370 405 C364 408 360 408 356 403 C354 401 351 398 350 395 C337 376 323 357 311 337 C262 260 214 182 166 105 C136 57 106 8 76 -40 C62 -62 48 -83 32 -103 C28 -107 24 -111 20 -116 L20 -116 Z " />
<glyph glyph-name="X" unicode="X" horiz-adv-x="368" d="M207 389 C206 389 206 390 206 390 C203 424 200 459 198 493 C194 529 191 565 183 600 C178 625 172 649 161 671 C155 683 148 694 136 700 C128 705 119 706 108 702 C94 696 83 685 71 674 C71 673 71 671 71 671 C73 669 77 670 80 672 C88 680 97 687 106 693 C118 699 126 699 133 690 C138 684 142 677 145 670 C153 652 158 631 160 609 C165 576 169 543 172 509 C177 459 181 409 185 359 C185 358 184 355 183 354 C159 317 134 280 110 242 C48 146 -15 49 -77 -48 C-104 -91 -132 -134 -156 -180 C-165 -196 -172 -213 -176 -231 C-177 -236 -176 -238 -172 -239 C-171 -239 -170 -239 -169 -239 C-165 -239 -164 -237 -163 -233 C-161 -229 -160 -226 -159 -222 C-150 -200 -139 -179 -127 -159 C-85 -88 -40 -18 5 51 C64 141 123 231 183 320 C184 323 186 325 188 328 C188 327 188 326 188 325 C190 308 192 291 194 274 C200 231 206 188 213 144 C222 87 231 29 239 -29 C248 -87 257 -145 266 -203 C266 -209 268 -214 266 -220 C266 -222 267 -222 269 -222 C272 -220 275 -218 277 -215 C283 -210 282 -204 281 -198 C279 -179 277 -160 274 -141 C267 -91 260 -41 253 9 C244 74 235 140 227 206 C220 256 215 307 209 357 C209 358 210 361 211 362 C225 383 239 404 254 425 C304 494 353 564 403 633 C419 656 436 680 453 703 C456 707 458 712 462 713 C463 714 463 715 463 716 C464 721 458 724 454 721 C451 719 448 716 445 713 C439 706 433 698 427 691 C412 671 397 653 382 633 C368 615 354 596 340 578 C298 522 258 465 219 408 C215 401 211 395 207 389 L207 389 Z " />
<glyph glyph-name="Y" unicode="Y" horiz-adv-x="518" d="M510 588 C510 588 510 587 510 587 C510 586 509 585 509 583 C495 536 481 489 466 441 C433 332 395 227 352 124 C325 58 295 -5 260 -64 C243 -93 225 -119 205 -143 C204 -145 202 -147 200 -147 C178 -148 155 -150 133 -152 C123 -153 112 -156 102 -162 C95 -167 88 -172 83 -181 C77 -192 77 -203 84 -212 C90 -220 98 -224 106 -224 C119 -226 132 -222 145 -215 C168 -202 189 -183 210 -160 C211 -159 213 -158 215 -158 C231 -159 248 -160 265 -163 C280 -165 294 -171 306 -185 C308 -186 310 -187 312 -187 C313 -187 315 -185 316 -184 C316 -183 315 -181 314 -179 C308 -172 301 -166 294 -162 C273 -152 251 -149 229 -148 C226 -147 224 -147 221 -147 C222 -145 223 -144 224 -143 C250 -112 273 -76 295 -38 C325 16 351 74 376 134 C434 274 484 420 528 571 C535 596 541 623 547 650 C550 659 548 663 543 668 C542 669 540 670 539 671 C535 672 532 671 530 667 C527 661 524 656 521 650 C483 574 444 499 403 427 C364 359 323 294 278 234 C257 206 235 178 212 155 C198 142 184 129 169 122 C163 120 157 118 151 120 C139 123 130 135 124 150 C115 171 111 195 109 220 C104 263 105 307 107 352 C110 395 115 439 122 482 C133 549 147 614 166 678 C171 693 175 710 186 722 C185 722 184 723 183 724 C180 727 175 727 171 723 C169 720 167 716 165 712 C154 692 147 670 140 647 C112 546 93 443 86 336 C83 292 83 249 88 207 C91 184 95 162 102 141 C109 125 118 112 131 106 C143 101 155 102 167 105 C180 109 192 116 204 125 C226 142 245 164 264 187 C305 238 343 294 378 353 C420 421 459 492 498 565 C502 572 505 580 510 588 L510 588 Z M191 -158 C191 -159 191 -159 190 -160 C172 -179 153 -196 131 -205 C124 -208 117 -210 110 -211 C107 -211 105 -210 102 -209 C97 -207 95 -200 98 -192 C100 -187 103 -183 106 -179 C116 -170 126 -165 137 -164 C155 -161 172 -160 189 -158 C190 -158 190 -158 191 -158 L191 -158 Z " />
<glyph glyph-name="Z" unicode="Z" horiz-adv-x="558" d="M326 264 C331 273 336 281 340 290 C379 363 417 437 448 518 C460 548 471 579 479 612 C484 634 488 655 488 678 C488 710 475 734 454 741 C441 746 427 744 414 740 C392 734 371 724 350 713 C290 678 234 632 181 578 C158 554 136 529 118 499 C112 491 107 482 104 471 C103 467 102 464 104 460 C106 456 109 455 112 455 C113 455 114 456 114 456 C115 457 114 459 114 459 C112 461 112 462 113 464 C117 470 119 476 123 482 C138 505 154 525 172 543 C208 583 246 617 286 647 C321 673 357 697 396 713 C411 720 427 725 443 725 C450 725 457 724 464 720 C469 718 472 712 473 704 C473 699 473 693 473 688 C472 669 468 651 464 634 C451 586 434 541 415 498 C380 414 339 334 297 257 C296 256 294 255 293 254 C283 251 273 248 262 245 C229 233 196 221 163 209 C146 202 129 195 111 188 C110 188 109 188 108 189 C105 192 102 192 99 190 C97 188 93 187 93 183 C94 179 96 177 99 176 C100 176 100 175 101 175 C105 176 109 175 113 176 C129 180 145 185 161 191 C201 205 240 219 280 233 C281 233 282 234 283 234 C283 233 283 233 283 233 C278 224 273 214 268 205 C230 140 191 77 149 17 C120 -23 91 -61 59 -95 C54 -100 51 -100 45 -97 C23 -84 1 -71 -24 -65 C-36 -61 -49 -59 -62 -64 C-71 -66 -79 -71 -84 -83 C-92 -99 -91 -115 -86 -131 C-80 -152 -67 -163 -53 -167 C-37 -173 -21 -169 -6 -163 C16 -154 36 -139 56 -122 C57 -120 59 -120 61 -121 C68 -126 76 -130 84 -134 C126 -153 167 -172 208 -190 C256 -210 303 -228 353 -238 C370 -241 387 -244 405 -241 C414 -240 423 -236 432 -231 C435 -229 436 -225 432 -222 C429 -218 425 -217 420 -219 C409 -224 397 -227 385 -226 C372 -225 359 -224 347 -222 C324 -216 302 -210 279 -202 C213 -180 149 -150 84 -118 C79 -116 74 -113 69 -110 C70 -109 71 -108 72 -107 C82 -97 92 -86 102 -76 C137 -37 169 7 199 53 C240 113 277 176 314 241 C315 243 316 244 317 245 C329 248 341 252 353 255 C374 260 394 265 415 269 C428 272 442 274 456 273 C458 273 460 272 462 272 C459 262 454 256 447 253 C446 253 445 252 444 251 C444 249 445 246 446 245 C447 243 449 242 451 242 C459 242 464 248 469 257 C471 262 472 268 470 273 C468 276 466 279 464 282 C459 286 453 287 447 287 C432 288 417 285 402 282 C379 277 355 271 332 265 C330 265 329 264 326 264 L326 264 Z M42 -111 C41 -111 41 -112 41 -112 C21 -130 1 -145 -22 -153 C-33 -156 -44 -158 -55 -154 C-68 -149 -76 -134 -76 -116 C-76 -96 -67 -81 -52 -78 C-40 -75 -29 -77 -17 -81 C-4 -85 32 -103 42 -111 L42 -111 Z " />
<glyph glyph-name="bracketleft" unicode="&#x5b;" horiz-adv-x="120" d="M-13 -82 C-13 -83 -13 -83 -13 -84 C-20 -84 -27 -84 -34 -83 C-42 -83 -44 -79 -42 -69 C-42 -67 -41 -65 -41 -63 C-36 -48 -32 -34 -28 -19 C-15 20 -3 59 10 98 C33 167 56 235 79 303 C111 394 145 485 175 577 C184 606 194 634 204 663 C207 672 211 677 219 678 C231 679 243 681 254 682 C257 682 259 682 261 683 C265 684 266 687 263 690 C262 691 260 693 258 693 C240 697 222 695 204 690 C195 688 190 681 186 671 C174 635 161 600 149 564 C123 490 96 416 71 341 C48 276 26 210 4 144 C-12 96 -28 47 -43 -2 C-50 -24 -57 -46 -64 -69 C-68 -84 -65 -93 -53 -96 C-46 -98 -37 -98 -29 -98 C-18 -97 -7 -95 4 -93 C8 -93 13 -90 13 -87 C13 -82 9 -82 6 -82 C0 -82 -7 -82 -13 -82 L-13 -82 Z " />
<glyph glyph-name="backslash" unicode="&#x5c;" horiz-adv-x="290" d="M103 688 C102 689 102 690 101 691 C99 697 95 700 91 700 C89 701 88 700 89 697 C92 680 96 662 99 645 C107 602 114 559 121 516 C129 466 136 416 144 367 C157 281 173 195 188 109 C199 48 210 -13 221 -73 C223 -83 226 -93 228 -103 C230 -109 232 -111 237 -111 C238 -111 240 -110 241 -109 C242 -109 242 -107 242 -106 C239 -96 237 -86 235 -77 C226 -24 217 29 208 82 C199 138 191 194 182 250 C171 321 158 393 147 465 C137 524 127 585 114 645 C111 659 108 673 103 688 L103 688 Z " />
<glyph glyph-name="bracketright" unicode="&#x5d;" horiz-adv-x="102" d="M142 682 C142 683 142 683 142 684 C149 684 155 684 162 684 C170 683 172 679 171 669 C170 667 170 665 169 663 C165 648 161 634 156 619 C144 580 131 541 118 502 C96 433 73 365 49 297 C18 206 -17 115 -47 23 C-56 -5 -66 -34 -75 -62 C-78 -72 -83 -77 -91 -78 C-102 -79 -114 -81 -126 -82 C-128 -82 -131 -82 -133 -83 C-136 -84 -137 -87 -135 -89 C-133 -91 -131 -93 -129 -93 C-112 -97 -94 -95 -75 -90 C-67 -88 -61 -81 -57 -70 C-45 -35 -33 0 -20 36 C6 110 32 184 58 259 C81 324 102 390 124 456 C141 504 156 553 172 602 C179 624 186 647 192 669 C197 684 194 694 182 696 C174 698 166 698 158 698 C147 697 136 695 125 694 C120 693 116 690 116 687 C116 682 120 683 123 682 C129 682 135 682 142 682 L142 682 Z " />
<glyph glyph-name="asciicircum" unicode="&#x5e;" horiz-adv-x="233" d="M242 700 C242 700 242 700 242 699 C242 699 242 698 242 697 C237 672 232 646 227 621 C226 615 229 611 235 611 C237 611 239 612 240 614 C242 623 243 631 245 639 C250 660 255 680 260 700 C262 707 264 713 265 720 C266 726 263 729 258 732 C253 734 251 733 247 729 C246 728 245 727 244 726 C231 708 218 691 205 673 C194 659 183 644 172 630 C169 626 166 622 160 620 C159 619 159 618 160 616 C163 613 169 612 172 615 C175 617 178 619 180 621 C193 638 206 654 219 671 C227 680 234 690 242 700 L242 700 Z " />
<glyph glyph-name="underscore" unicode="&#x5f;" horiz-adv-x="193" d="M75 132 C75 132 75 132 75 132 C62 131 49 131 36 131 C22 130 8 129 -6 128 C-8 128 -10 127 -12 126 C-11 124 -10 122 -8 121 C-3 118 3 117 9 117 C31 117 53 117 74 118 C88 119 103 120 117 122 C118 122 121 123 121 124 C122 125 121 127 119 128 C115 131 109 132 103 132 C93 132 84 132 75 132 L75 132 Z " />
<glyph glyph-name="grave" unicode="&#x60;" horiz-adv-x="142" d="M106 673 C106 672 106 671 107 670 C110 657 113 645 117 633 C118 625 121 618 125 611 C127 608 130 606 134 606 C136 607 137 608 136 611 C133 622 130 635 128 646 C125 654 124 663 121 670 C120 677 115 679 110 678 C108 677 106 677 106 673 L106 673 Z " />
<glyph glyph-name="a" unicode="a" horiz-adv-x="168" d="M168 268 C145 231 119 194 93 158 C83 144 73 128 60 115 C60 115 60 115 60 115 C60 115 60 115 59 114 C57 112 52 107 47 106 C47 106 47 106 47 106 C47 106 47 106 46 106 C42 106 42 114 41 116 C41 119 41 123 42 126 C43 137 46 153 47 157 C53 179 59 201 67 222 C73 239 78 256 84 273 C85 277 86 282 87 286 C87 290 84 293 79 295 C74 296 71 295 69 291 C66 285 63 280 60 274 L60 274 L54 262 C54 262 52 279 39 285 C31 288 22 286 13 281 C5 277 -1 270 -6 263 C-26 234 -38 203 -42 169 C-43 164 -43 156 -42 149 C-41 145 -37 125 -18 138 C-17 139 -16 139 -16 140 C5 156 42 221 42 221 L33 192 L33 192 C33 189 32 187 31 184 C28 175 26 165 23 155 C19 139 14 102 34 94 C34 94 34 94 34 94 C35 93 36 93 38 93 C48 91 58 99 61 102 C64 105 67 108 70 111 C82 125 93 141 104 156 C116 173 127 189 139 205 C152 224 165 243 177 263 C181 269 172 274 168 268 L168 268 Z M42 242 C30 219 17 197 3 176 C0 171 -10 158 -18 149 C-19 147 -23 144 -25 147 C-26 149 -26 152 -26 154 C-26 161 -25 168 -24 175 C-22 181 -21 188 -19 194 C-15 207 -10 220 -4 232 C-3 234 -2 235 -2 236 C3 244 7 251 12 258 C13 258 26 274 34 276 C34 276 34 276 34 276 C43 278 48 252 48 252 C48 252 42 242 42 242 L42 242 Z " />
<glyph glyph-name="b" unicode="b" horiz-adv-x="204" d="M204 270 C187 257 169 246 150 235 C133 226 116 218 98 212 C98 213 99 214 99 216 C102 223 104 230 106 237 C109 247 112 263 110 277 C109 282 107 286 103 289 C97 294 88 294 80 289 C75 286 69 281 64 274 C61 272 59 270 57 267 C57 267 56 266 56 266 C39 246 23 221 19 215 C5 192 -8 169 -8 169 L-5 182 C-4 182 -4 183 -4 183 C6 215 16 246 25 277 C62 329 93 383 119 440 C132 469 144 499 155 530 C160 545 165 560 170 576 C175 591 179 607 181 623 C181 625 181 626 181 627 C181 629 181 631 181 633 C181 633 181 633 181 634 C181 634 181 634 181 634 C181 641 181 647 180 653 C179 657 177 662 174 665 C173 665 172 666 171 666 C171 666 171 667 171 667 C170 667 169 667 168 667 C161 669 155 663 153 661 C138 645 122 609 118 601 C118 600 118 600 118 599 C92 538 69 477 48 414 C35 379 23 343 12 307 C0 271 -31 168 -31 168 C-37 145 -43 124 -46 114 C-46 112 -47 111 -47 110 C-48 104 -46 100 -41 98 C-37 97 -34 98 -31 100 C-30 101 -29 104 -28 106 L-28 106 C-28 106 -28 106 -28 106 C-28 106 -27 107 -27 107 C-27 109 -26 111 -25 114 C-15 137 -2 159 10 181 C23 203 37 225 52 245 C59 253 65 261 72 269 C77 274 82 279 88 282 C99 288 94 262 94 262 L94 262 C91 244 85 227 77 210 C77 210 76 208 74 204 C62 200 51 197 39 192 C26 187 11 177 7 162 C5 155 6 147 10 142 C17 132 29 131 41 135 C42 135 42 135 42 135 C42 135 42 135 42 135 C60 142 74 161 80 173 C82 176 84 180 85 183 C88 189 91 194 93 200 C93 200 93 200 93 201 C115 208 137 217 158 229 C176 239 193 251 210 263 C216 267 210 274 204 270 L204 270 Z M44 337 C63 397 85 456 107 515 C117 541 127 566 137 592 C142 605 157 640 169 655 C172 646 172 633 172 633 C172 624 170 615 169 607 C166 592 161 578 156 564 C152 550 147 536 142 522 C122 466 97 412 67 360 C57 342 46 325 35 308 C38 318 41 327 44 337 L44 337 Z M50 162 C50 162 50 162 50 162 C47 158 43 154 39 150 C30 140 23 144 21 146 C19 148 18 150 17 152 C14 158 17 165 22 171 C32 181 45 185 57 189 C61 190 64 191 68 192 C63 182 56 170 50 162 L50 162 Z " />
<glyph glyph-name="c" unicode="c" horiz-adv-x="148" d="M148 270 C141 262 133 255 126 247 C115 237 104 226 93 215 C70 192 46 168 20 149 C13 145 6 141 -1 138 C-8 136 -16 138 -19 146 C-19 146 -19 146 -19 146 C-19 148 -20 149 -20 151 C-22 164 -20 177 -17 189 C-11 216 0 240 14 263 C20 271 26 279 34 285 C36 286 39 287 40 287 C41 286 41 284 41 283 C41 279 38 272 38 271 C35 266 33 262 31 257 C34 254 38 253 41 258 C45 263 48 268 50 274 C54 283 51 291 44 294 C40 295 35 296 31 295 C20 293 11 285 4 276 C-12 257 -24 235 -32 211 C-38 194 -42 176 -40 158 C-40 154 -39 150 -38 147 C-36 139 -28 125 -6 128 C-6 128 -6 128 -5 128 C-5 128 -5 128 -4 128 C4 129 11 133 15 135 C27 142 38 151 45 157 C73 181 98 207 124 232 C124 232 124 232 124 232 C134 242 144 252 154 262 C158 267 153 274 148 270 L148 270 Z " />
<glyph glyph-name="d" unicode="d" horiz-adv-x="163" d="M232 635 C232 642 231 648 230 654 C229 658 228 663 225 666 C224 666 223 667 222 667 C222 667 221 668 221 668 C220 668 220 668 219 668 C212 670 206 664 204 662 C188 646 173 610 169 602 C169 601 169 600 168 600 C144 539 121 478 100 415 C83 365 67 314 51 264 C51 266 49 280 38 285 C30 288 22 287 14 282 C6 278 0 271 -5 264 C-25 237 -37 208 -43 176 C-43 169 -45 154 -39 147 C-38 144 -32 138 -21 145 C-21 146 -21 146 -20 146 C-20 146 -20 146 -20 146 C-8 155 5 172 10 179 C17 190 24 201 31 211 C33 213 34 215 35 217 L23 180 C15 148 8 105 27 95 C28 94 28 94 29 94 C29 94 29 94 29 94 C30 93 31 93 33 93 C43 91 53 99 56 102 C59 105 62 108 65 111 C77 125 88 141 99 156 C111 173 122 189 134 205 C147 224 160 243 172 263 C176 269 167 274 163 268 C140 231 114 194 88 158 C78 144 68 128 55 115 C55 115 55 115 55 115 C55 115 55 115 54 114 C52 112 47 107 42 106 C42 106 42 106 42 106 C42 106 41 106 41 106 C41 106 40 106 40 107 C32 115 41 154 49 181 L57 206 L57 206 L57 206 L79 279 C115 330 145 384 171 441 C184 470 196 500 206 531 C212 546 217 561 221 577 C226 592 230 608 232 624 C232 626 232 627 232 628 L232 628 C232 630 232 632 232 634 C232 634 232 634 232 635 C232 635 232 635 232 635 L232 635 Z M0 182 C-3 178 -12 165 -20 157 C-22 156 -26 152 -27 156 C-28 157 -28 160 -28 162 C-28 169 -26 175 -25 182 C-24 188 -22 194 -20 200 C-16 212 -10 224 -4 235 C-3 237 -3 238 -2 239 C4 250 12 260 21 269 C24 272 28 275 33 276 C33 276 33 276 33 276 C42 279 45 254 45 254 C45 254 39 244 39 244 C27 223 14 202 0 182 L0 182 Z M219 608 C217 593 212 579 208 565 C203 551 199 537 194 523 C174 467 149 413 120 361 C110 343 99 326 88 309 L90 315 C92 323 95 330 97 338 C116 398 137 457 159 516 C168 542 178 567 188 593 C193 606 208 641 220 656 C222 647 222 634 222 634 C222 625 221 616 219 608 L219 608 Z " />
<glyph glyph-name="e" unicode="e" horiz-adv-x="148" d="M148 270 C141 262 133 255 126 247 C115 237 104 226 94 215 C70 192 46 168 20 149 C13 145 7 141 -1 138 C-8 136 -15 138 -18 146 C-18 146 -18 146 -18 146 C-19 148 -20 149 -20 151 C-22 164 -20 177 -17 189 C-14 202 -10 215 -5 227 C9 234 22 243 32 254 C33 255 33 256 34 256 C45 269 47 276 48 277 C48 280 48 282 48 283 C48 293 41 295 37 295 C35 295 33 295 31 295 C20 293 12 285 4 276 C-12 257 -24 235 -32 211 C-37 194 -41 176 -40 158 C-39 154 -39 150 -38 147 C-35 139 -28 125 -6 128 C-6 128 -5 128 -5 128 C-5 128 -4 128 -4 128 C4 129 11 133 15 135 C27 142 38 151 46 157 C73 181 98 207 124 232 C124 232 124 232 124 232 C134 242 144 252 154 262 C159 267 153 274 148 270 L148 270 Z M14 263 C16 266 18 269 21 272 C21 272 21 272 21 273 C22 273 22 274 22 274 C27 279 33 286 39 287 C41 281 34 271 34 271 L34 271 C33 271 33 271 33 270 C29 266 25 261 21 257 C15 252 9 247 3 243 C6 250 10 256 14 263 L14 263 Z " />
<glyph glyph-name="f" unicode="f" horiz-adv-x="160" d="M195 634 C195 641 195 647 194 653 C193 657 192 662 189 665 C188 665 187 666 186 666 C186 666 186 667 186 667 C185 667 184 667 183 667 C176 669 170 663 168 661 C151 645 134 609 131 601 C130 600 130 600 130 599 C102 538 76 477 53 414 C47 399 41 384 35 369 C26 345 -10 243 -10 243 C-43 148 -103 -26 -118 -92 C-121 -101 -123 -110 -124 -118 C-125 -122 -125 -126 -126 -129 L-126 -129 C-126 -130 -126 -131 -126 -132 C-130 -151 -132 -171 -133 -190 C-133 -200 -133 -209 -130 -218 C-126 -233 -113 -236 -99 -232 C-92 -229 -86 -224 -81 -219 C-72 -209 -64 -198 -58 -186 C-47 -165 -38 -142 -32 -119 C-31 -117 -30 -115 -30 -113 C-25 -94 -26 -79 -30 -68 C-30 -67 -30 -67 -30 -67 C-30 -66 -30 -65 -31 -65 C-31 -64 -31 -64 -31 -64 C-31 -63 -31 -63 -31 -63 C-39 -43 -58 -33 -67 -29 C-70 -28 -72 -28 -73 -27 C-15 51 47 127 111 201 C130 221 148 242 167 262 C171 267 165 274 160 269 C93 196 29 121 -32 42 C-44 27 -56 11 -68 -5 L-64 8 L-64 8 C-45 70 -16 160 11 238 C17 253 22 267 24 274 L26 279 C64 330 97 384 125 440 C139 469 153 499 164 530 C170 545 176 560 181 576 C187 591 192 607 194 623 C194 625 194 626 194 627 C195 629 195 631 195 633 C195 633 195 633 195 634 C195 634 195 634 195 634 L195 634 Z M-46 -130 C-75 -216 -106 -223 -106 -223 C-106 -223 -106 -223 -106 -223 C-106 -223 -106 -223 -106 -223 C-106 -223 -106 -223 -106 -223 C-106 -223 -119 -224 -102 -132 C-99 -113 -94 -93 -89 -72 C-89 -72 -85 -59 -78 -38 L-78 -38 L-77 -33 C-77 -33 -16 -44 -46 -130 L-46 -130 Z M181 607 C178 592 172 578 167 564 C162 550 157 536 151 522 C129 466 102 412 70 360 C59 342 48 325 36 308 C39 318 43 327 46 337 C68 397 91 456 116 515 C127 541 138 566 149 592 C155 605 171 640 184 655 C186 646 185 633 185 633 C185 624 183 615 181 607 L181 607 Z " />
<glyph glyph-name="g" unicode="g" horiz-adv-x="172" d="M172 270 C119 230 73 184 30 134 C39 159 49 188 49 188 L49 188 C59 217 68 246 77 274 C79 279 79 283 80 288 C80 291 77 294 73 294 C68 295 66 294 64 290 C57 278 50 266 43 254 C33 237 22 222 10 207 C8 205 2 199 -3 196 C-6 218 18 268 32 283 C34 280 34 277 34 271 C34 267 37 264 41 266 C42 266 43 267 43 268 C44 271 45 275 46 278 C46 288 40 295 31 295 C24 295 17 291 12 285 C3 276 -3 266 -9 256 C-17 240 -24 224 -26 207 C-28 194 -25 187 -18 184 C-18 183 -18 183 -17 183 C-16 183 -16 182 -15 182 C9 178 51 249 51 249 L47 238 C47 238 47 238 47 238 C46 236 45 233 44 231 L44 231 L44 231 C33 199 21 168 10 137 L10 137 L-6 92 C-16 81 -25 69 -35 58 C-57 31 -79 4 -100 -24 C-120 -52 -139 -81 -156 -111 C-172 -138 -190 -168 -187 -201 C-186 -206 -185 -211 -183 -217 C-179 -226 -167 -244 -131 -217 C-129 -216 -116 -205 -101 -186 C-87 -168 -76 -148 -66 -127 C-45 -84 -30 -39 -15 6 C-8 26 -1 46 6 66 C10 79 14 91 19 103 C19 104 20 106 21 109 C23 111 24 113 26 115 C66 162 109 207 158 247 C164 252 170 257 177 262 C181 265 177 274 172 270 L172 270 Z M-31 20 C-46 -28 -61 -76 -82 -123 C-91 -143 -101 -163 -114 -181 C-117 -186 -147 -226 -165 -222 C-171 -221 -174 -213 -175 -209 C-176 -208 -176 -207 -176 -207 C-183 -176 -165 -145 -150 -120 C-134 -92 -116 -64 -97 -38 C-78 -10 -57 16 -35 42 C-29 50 -22 58 -15 66 C-21 50 -26 35 -31 20 L-31 20 Z " />
<glyph glyph-name="h" unicode="h" horiz-adv-x="215" d="M215 269 C188 238 161 208 134 177 C121 163 109 148 96 134 C95 133 93 131 92 130 C90 128 83 121 73 116 C66 112 67 120 68 126 C68 130 69 134 70 138 C82 180 97 221 114 262 C119 272 122 282 126 293 C128 300 124 306 117 308 C113 309 109 309 105 306 L105 306 L105 306 C105 306 104 306 104 305 C96 298 88 292 81 285 L80 284 L80 284 C79 283 78 282 76 281 C48 254 22 224 -1 193 C-2 192 -3 191 -3 191 L-6 187 L27 277 C63 329 94 383 120 440 C133 469 145 499 156 530 C162 545 167 560 171 576 C176 591 181 607 182 623 C182 625 182 626 182 627 C182 629 183 631 183 633 C183 633 183 633 183 634 C183 634 183 634 183 634 C183 641 182 647 181 653 C180 657 178 662 175 665 C175 665 174 666 172 666 C172 666 172 667 172 667 C171 667 170 667 169 667 C162 669 156 663 154 661 C139 645 123 609 119 601 C119 600 119 600 119 599 C93 538 70 477 49 414 C45 403 41 391 37 379 L37 379 L19 327 L-35 165 L-35 165 C-35 164 -36 164 -36 163 C-36 160 -35 158 -33 156 C-26 150 -16 150 -10 157 C-4 165 1 172 7 180 C26 208 48 235 72 260 C73 262 95 284 105 290 C102 283 98 277 95 270 C77 229 60 187 49 143 C48 140 47 137 47 134 C46 126 42 92 71 102 C71 103 71 103 71 103 C85 109 97 120 107 131 C132 159 156 187 180 215 C194 231 209 247 223 264 C228 269 219 274 215 269 L215 269 Z M45 337 C65 397 86 456 108 515 C118 541 128 566 138 592 C144 605 158 640 171 655 C173 646 173 633 173 633 C173 624 171 615 170 607 C167 592 162 578 158 564 C153 550 148 536 143 522 C123 466 98 412 68 360 C58 342 48 325 36 308 C39 318 42 327 45 337 L45 337 Z " />
<glyph glyph-name="i" unicode="i" horiz-adv-x="99" d="M38 338 C42 348 47 359 51 370 C53 375 53 377 49 378 C45 379 42 378 40 374 C35 363 30 351 25 339 C25 338 25 336 26 335 C30 331 35 332 38 338 L38 338 Z M105 269 C102 273 99 270 99 270 C81 248 64 225 47 203 C38 192 30 181 20 171 C18 169 16 167 13 165 L13 165 C13 165 13 165 13 164 C12 163 10 162 8 161 C5 158 1 156 -2 156 C-5 159 -6 163 -6 166 C-7 170 -6 174 -6 178 C-4 198 2 219 10 239 C13 247 16 255 18 263 C19 266 19 268 18 270 C18 270 18 270 18 270 C17 270 17 271 17 271 C17 271 17 271 17 271 C17 271 17 271 17 271 C13 274 7 272 7 272 L7 272 C6 272 6 272 5 272 C5 272 5 272 5 272 C2 271 0 272 0 271 C1 264 -60 143 -2 146 L-2 146 C7 147 15 153 21 159 C32 169 41 180 50 191 C68 215 86 239 105 262 L105 262 C105 262 107 265 105 269 L105 269 Z " />
<glyph glyph-name="j" unicode="j" horiz-adv-x="113" d="M35 338 C40 348 44 359 49 370 C50 375 50 377 46 378 C42 379 39 378 37 374 C32 363 27 351 22 339 C22 338 23 336 23 335 C27 331 32 332 35 338 L35 338 Z M113 270 C61 230 15 184 -29 134 C-20 159 -9 188 -9 188 L-9 188 C0 217 9 246 19 274 C20 279 20 283 21 288 C21 291 19 294 14 294 C12 294 10 294 8 293 L-26 198 L-26 198 C-34 178 -41 157 -49 137 L-49 137 L-65 92 C-75 81 -84 69 -93 58 C-116 31 -138 4 -158 -24 C-178 -52 -197 -81 -215 -111 C-231 -138 -249 -168 -245 -201 C-245 -206 -244 -211 -242 -217 C-238 -226 -225 -244 -190 -217 C-188 -216 -175 -205 -160 -186 C-146 -168 -135 -148 -125 -127 C-104 -84 -89 -39 -74 6 C-67 26 -60 46 -53 66 C-49 79 -44 91 -40 103 C-39 104 -39 106 -38 109 C-36 111 -35 113 -33 115 C8 162 51 207 99 247 C105 252 112 257 118 262 C123 265 118 274 113 270 L113 270 Z M-89 20 C-104 -28 -120 -76 -141 -123 C-150 -143 -160 -163 -173 -181 C-176 -186 -206 -226 -224 -222 C-230 -221 -233 -213 -234 -209 C-234 -208 -234 -207 -234 -207 C-242 -176 -224 -145 -209 -120 C-192 -92 -175 -64 -156 -38 C-136 -10 -115 16 -94 42 C-87 50 -81 58 -74 66 C-79 50 -84 35 -89 20 L-89 20 Z " />
<glyph glyph-name="k" unicode="k" horiz-adv-x="164" d="M182 634 C182 641 182 647 181 653 C180 657 178 662 175 665 C174 665 173 666 172 666 C172 666 172 667 172 667 C171 667 170 667 169 667 C162 669 156 663 154 661 C138 645 123 609 119 601 C119 600 119 600 118 599 C93 538 70 477 49 414 C44 403 40 391 36 379 L19 327 C19 327 -36 165 -36 165 C-36 164 -36 164 -36 163 C-37 160 -35 158 -33 156 C-32 155 -31 154 -30 154 C-28 153 -21 151 -17 161 C-17 161 -13 170 -13 170 L-8 184 C-8 184 -4 194 -4 194 L7 224 C7 224 12 230 19 239 C20 239 58 282 77 286 C79 281 76 274 71 267 C65 257 54 248 44 244 C41 243 38 242 36 242 C36 242 36 242 36 242 C31 240 31 237 31 236 C31 235 32 235 32 234 C32 234 32 234 32 234 L32 234 C34 226 36 210 33 180 C32 177 32 174 32 171 C32 171 32 171 32 171 C31 166 30 160 30 155 C30 153 30 151 30 150 C30 143 31 130 40 127 C43 126 51 126 64 139 C86 164 108 190 130 215 C144 231 158 247 173 264 C177 269 169 274 164 269 C137 238 111 208 84 177 C72 164 61 151 50 138 C48 144 49 154 49 157 C49 165 50 173 51 181 C53 213 52 235 52 235 C77 247 85 263 88 271 C90 277 91 283 88 289 C84 296 77 296 71 294 C55 288 33 267 17 251 C17 251 18 255 18 255 L26 277 C63 329 94 383 120 440 C133 469 145 499 156 530 C161 545 166 560 171 576 C176 591 180 607 182 623 C182 625 182 626 182 627 C182 629 182 631 182 633 C182 633 182 633 182 634 C182 634 182 634 182 634 L182 634 Z M169 607 C167 592 162 578 157 564 C153 550 148 536 143 522 C123 466 98 412 68 360 C58 342 47 325 36 308 C39 318 42 327 45 337 C64 397 86 456 108 515 C118 541 128 566 138 592 C143 605 158 640 170 655 C172 646 173 633 173 633 C172 624 171 615 169 607 L169 607 Z " />
<glyph glyph-name="l" unicode="l" horiz-adv-x="120" d="M181 634 C181 641 180 647 179 653 C179 657 177 662 174 665 C173 665 172 666 171 666 C171 666 171 667 170 667 C170 667 169 667 168 667 C161 669 155 663 153 661 C137 645 121 609 118 601 C118 600 117 600 117 599 C92 538 69 477 47 414 C35 379 23 343 11 307 C5 288 -6 252 -15 221 C-15 221 -42 141 -35 112 C-33 107 -28 96 -11 103 C6 111 27 136 32 142 C52 166 71 190 90 215 C103 231 116 247 129 264 C133 269 125 274 120 269 C96 238 71 208 47 177 C40 168 33 159 26 150 C24 149 -11 108 -15 117 C-16 121 -15 130 -13 142 C-10 156 -7 170 -3 184 C2 202 7 220 9 227 C14 244 20 261 25 277 C61 329 92 383 118 440 C132 469 144 499 155 530 C160 545 165 560 170 576 C175 591 179 607 180 623 C180 625 181 626 181 627 C181 629 181 631 181 633 C181 633 181 633 181 634 C181 634 181 634 181 634 L181 634 Z M168 607 C165 592 161 578 156 564 C151 550 147 536 142 522 C121 466 97 412 67 360 C57 342 46 325 35 308 C38 318 41 327 44 337 C63 397 84 456 107 515 C117 541 127 566 137 592 C142 605 157 640 169 655 C171 646 171 633 171 633 C171 624 170 615 168 607 L168 607 Z " />
<glyph glyph-name="m" unicode="m" horiz-adv-x="303" d="M303 269 C276 238 249 208 222 177 C210 163 197 148 184 134 C183 133 181 131 180 130 C179 128 171 121 161 116 C154 112 155 120 156 126 C157 130 157 134 158 138 C170 180 186 221 203 262 C207 272 210 282 214 293 C216 300 212 306 205 308 C200 309 196 308 192 305 C183 297 174 289 165 281 C136 254 111 224 87 193 C86 192 86 191 85 191 C93 215 103 238 113 262 C117 272 120 282 124 293 C126 300 122 306 115 308 C110 309 106 308 102 305 C93 297 84 289 75 281 C46 254 21 224 -3 193 C-4 192 -4 191 -5 191 C-5 192 -5 193 -5 193 C1 211 7 228 12 246 C14 251 15 256 16 261 C16 261 16 262 16 262 C18 266 13 270 7 272 C3 274 1 272 0 271 C0 271 0 271 0 270 C-11 248 -21 224 -28 200 C-31 188 -34 176 -37 163 C-38 160 -37 158 -35 156 C-28 150 -17 150 -12 157 C-6 165 -1 172 5 180 C27 212 52 243 80 270 C82 273 95 285 103 290 C102 288 101 286 100 283 C100 283 100 283 100 283 C98 280 89 259 89 259 C79 233 58 183 54 169 C54 169 54 169 54 169 C53 167 53 165 53 163 C52 160 53 158 55 156 C62 150 73 150 78 157 C84 165 90 172 95 180 C119 215 146 248 177 278 C182 282 187 286 192 291 C192 291 193 290 193 290 C190 283 187 277 184 270 C165 229 148 187 137 143 C136 140 136 137 135 134 C134 126 130 92 159 102 C159 103 159 103 159 103 C173 109 185 120 195 131 C220 159 244 187 268 215 C283 231 297 247 311 264 C316 269 307 274 303 269 L303 269 Z " />
<glyph glyph-name="n" unicode="n" horiz-adv-x="214" d="M214 269 C187 238 160 208 133 177 C120 163 108 148 95 134 C94 133 92 131 91 130 C89 128 82 121 72 116 C65 112 65 120 67 126 C67 130 68 134 69 138 C81 180 96 221 113 262 C118 272 121 282 124 293 C127 300 123 306 116 308 C111 309 106 308 103 305 C94 297 84 289 75 281 C47 254 21 224 -2 193 C-3 192 -4 191 -4 191 C-5 192 -4 193 -4 193 C1 211 7 228 13 246 C14 251 16 256 17 261 C17 261 17 262 17 262 C18 266 14 270 8 272 C5 274 1 272 0 271 C-11 249 -20 224 -27 200 C-31 188 -34 176 -37 163 C-37 160 -36 158 -34 156 C-27 150 -17 150 -11 157 C-5 165 0 172 6 180 C30 215 57 248 88 278 C93 282 98 286 103 291 C103 291 103 290 104 290 C101 283 97 277 94 270 C76 229 59 187 48 143 C47 140 46 137 46 134 C45 126 40 92 70 102 C70 103 70 103 70 103 C84 109 96 120 106 131 C131 159 155 187 179 215 C193 231 208 247 222 264 C227 269 218 274 214 269 L214 269 Z " />
<glyph glyph-name="o" unicode="o" horiz-adv-x="146" d="M146 270 C134 261 120 253 104 250 C93 248 77 247 66 253 C65 254 65 255 65 255 C65 256 65 257 65 257 C63 261 60 262 55 262 C51 261 48 258 48 254 C48 254 48 254 48 254 C48 254 48 254 48 254 C48 253 48 253 48 253 C49 250 51 248 52 246 C53 245 53 245 54 244 C54 244 54 244 54 244 L54 244 C55 242 55 240 55 237 C54 224 52 212 48 199 C42 181 34 164 22 149 C16 141 10 135 1 130 C-6 126 -11 126 -14 132 C-17 136 -19 140 -19 145 C-19 153 -19 162 -17 170 C-15 187 -9 204 -3 221 C2 235 8 248 16 260 C18 263 20 266 23 270 C24 267 24 264 25 262 C26 259 28 259 31 259 C35 260 36 263 36 265 C37 273 33 279 26 280 C17 282 5 277 -2 269 C-2 268 -3 268 -3 268 C-7 263 -25 238 -35 192 C-36 187 -37 182 -38 177 C-40 165 -46 116 -11 117 C-2 117 7 120 15 126 C27 133 35 143 42 154 C59 179 67 205 67 232 C67 233 67 233 67 233 C67 236 67 239 67 242 C78 238 91 238 101 240 C120 242 136 251 151 262 C156 265 151 274 146 270 L146 270 Z " />
<glyph glyph-name="p" unicode="p" horiz-adv-x="200" d="M200 270 C182 257 164 246 145 235 C128 226 111 218 93 212 C93 213 94 214 94 216 C97 223 99 230 101 237 C104 247 107 263 106 277 C105 282 103 286 99 289 C93 294 84 294 76 289 C71 286 65 281 59 274 C57 272 55 270 53 267 C52 267 52 266 52 266 C35 246 18 221 14 215 C-1 192 -14 169 -14 169 L19 277 C20 280 20 284 20 288 C20 291 18 294 14 294 C11 294 9 294 8 293 L-58 103 L-58 103 L-62 92 C-71 81 -80 69 -89 58 C-111 31 -132 4 -152 -24 C-172 -52 -190 -81 -207 -111 C-222 -138 -240 -168 -236 -201 C-235 -206 -234 -211 -232 -217 C-228 -226 -215 -244 -180 -217 C-178 -216 -165 -205 -150 -186 C-137 -168 -126 -148 -117 -127 C-97 -84 -83 -39 -68 6 C-65 17 -61 27 -58 38 C-44 83 -23 129 -21 133 C-13 150 -4 165 5 181 C18 203 32 225 47 245 C54 253 61 261 68 269 C73 274 78 279 84 282 C94 288 90 262 90 262 L90 262 C86 244 80 227 72 210 C72 210 71 208 69 204 C57 200 45 197 34 192 C20 187 5 177 1 162 C-1 155 1 147 4 142 C11 132 23 131 35 135 C36 135 36 135 36 135 C36 135 36 135 36 135 C54 142 68 161 75 173 C77 176 78 180 80 183 C83 189 85 194 88 200 C88 200 88 200 88 201 C110 208 132 217 153 229 C171 239 188 251 205 263 C211 267 205 274 200 270 L200 270 Z M-84 20 C-98 -28 -112 -76 -133 -123 C-142 -143 -151 -163 -163 -181 C-167 -186 -195 -226 -214 -222 C-220 -221 -223 -213 -224 -209 C-224 -208 -225 -207 -225 -207 C-232 -176 -215 -145 -201 -120 C-185 -92 -168 -64 -150 -38 C-131 -10 -110 16 -89 42 C-83 50 -77 58 -70 66 C-75 50 -80 35 -84 20 L-84 20 Z M44 162 C44 162 44 162 44 162 C41 158 37 154 34 150 C24 140 17 144 15 146 C13 148 12 150 11 152 C8 158 11 165 17 171 C26 181 40 185 52 189 C55 190 59 191 63 192 C57 182 51 170 44 162 L44 162 Z " />
<glyph glyph-name="q" unicode="q" horiz-adv-x="218" d="M218 269 C150 196 86 121 25 42 C13 27 1 11 -11 -5 L-7 8 L-7 8 C13 70 41 160 68 238 C70 243 72 248 74 253 L82 277 C82 277 85 288 77 293 C76 293 75 294 74 294 C74 294 74 294 74 294 L74 294 C73 294 73 294 73 294 C68 295 66 294 63 290 C56 278 50 266 43 254 C33 237 22 222 9 207 C7 205 2 199 -4 196 C-6 215 12 257 27 277 L27 277 C27 277 33 287 37 287 C39 286 39 276 39 269 C39 267 39 265 41 266 C42 267 43 267 43 268 C43 268 43 269 43 269 C44 272 47 285 41 291 C38 294 35 295 31 295 C23 295 17 291 11 285 C3 276 -3 266 -9 256 C-18 240 -25 224 -27 207 C-28 194 -25 187 -19 184 C-18 183 -18 183 -18 183 C-17 183 -16 182 -15 182 C5 178 38 230 48 245 C47 244 47 243 47 243 C14 148 -46 -26 -61 -92 C-63 -101 -65 -110 -67 -118 C-67 -122 -68 -126 -69 -129 L-69 -129 C-69 -130 -69 -131 -69 -132 C-72 -151 -75 -171 -76 -190 C-76 -200 -76 -209 -73 -218 C-68 -233 -56 -236 -42 -232 C-34 -229 -29 -224 -24 -219 C-14 -209 -7 -198 -1 -186 C11 -165 19 -142 26 -119 C26 -117 27 -115 27 -113 C32 -94 31 -79 28 -68 C28 -67 28 -67 27 -67 C27 -66 27 -65 27 -65 C27 -64 27 -64 26 -64 C26 -63 26 -63 26 -63 C18 -43 0 -33 -10 -29 C-12 -28 -14 -28 -16 -27 C43 51 104 127 169 201 C187 221 205 242 224 262 C229 267 222 274 218 269 L218 269 Z M12 -130 C-18 -216 -48 -223 -48 -223 C-48 -223 -48 -223 -48 -223 C-48 -223 -48 -223 -48 -223 C-49 -223 -49 -223 -49 -223 C-49 -223 -62 -224 -45 -132 C-41 -113 -37 -93 -31 -72 C-31 -72 -27 -59 -21 -38 L-19 -33 C-19 -33 41 -44 12 -130 L12 -130 Z " />
<glyph glyph-name="r" unicode="r" horiz-adv-x="177" d="M177 269 C148 238 120 208 91 177 C77 163 64 148 50 134 C49 133 47 131 46 130 C44 128 36 121 26 116 C19 112 20 120 21 126 C22 130 23 134 25 138 C28 147 31 157 35 166 C35 166 35 166 35 166 L35 167 C35 168 36 169 36 169 C36 170 36 170 37 171 L52 211 C54 214 56 223 55 231 C53 241 48 249 39 256 C36 259 32 261 29 264 C25 267 22 270 19 273 L16 275 C16 275 26 288 33 304 C33 304 33 304 34 305 C35 307 36 310 37 312 C39 318 40 323 40 324 C44 346 33 351 29 352 C27 352 25 353 22 353 C15 352 10 348 5 343 C-1 336 -6 328 -10 319 C-17 301 -17 286 -7 272 C-7 272 -6 270 -2 266 C-2 266 -2 266 -2 266 C-2 266 -2 266 -2 266 C0 264 2 261 5 259 C5 259 12 253 17 249 C18 248 19 247 20 246 C26 241 29 234 30 226 C30 218 28 210 25 202 C25 201 24 199 24 198 C16 180 10 162 4 143 C3 140 2 137 1 134 C-1 126 -7 92 23 102 C23 103 23 103 24 103 C38 109 50 120 61 131 C88 159 113 187 139 215 C155 231 170 247 185 264 C190 269 182 274 177 269 L177 269 Z M25 345 C39 337 28 313 24 306 C24 305 24 304 23 304 C23 304 23 304 23 304 L23 304 C17 293 11 284 11 284 C0 295 10 336 25 345 L25 345 Z " />
<glyph glyph-name="s" unicode="s" horiz-adv-x="172" d="M172 270 C127 243 84 212 44 178 C43 179 43 180 42 181 C42 181 42 181 42 181 C41 183 40 185 39 187 C34 200 22 232 24 271 C39 288 52 306 63 326 C69 337 74 348 78 360 C79 364 81 368 81 372 C84 386 80 392 79 393 C76 397 70 400 60 396 C49 391 33 377 17 343 C15 340 13 336 12 333 C-14 270 9 206 21 180 L21 180 C21 180 21 180 21 180 C21 179 22 178 22 177 C23 174 25 171 26 168 L26 168 L27 166 C27 166 -122 42 -170 -92 C-178 -117 -184 -152 -162 -166 C-162 -166 -162 -166 -162 -166 C-161 -167 -159 -168 -157 -169 C-149 -173 -139 -173 -128 -172 C-111 -169 -94 -162 -77 -152 C-31 -123 9 -84 42 -34 C51 -20 75 22 73 77 C70 110 60 140 54 156 C53 158 50 163 48 169 C74 190 101 211 129 230 C145 241 161 252 177 262 C183 265 178 274 172 270 L172 270 Z M31 314 C32 315 32 315 32 315 L32 315 C37 332 45 348 57 363 C59 367 61 370 64 374 C66 377 69 380 72 382 C72 379 72 376 71 374 C70 368 68 363 66 357 C62 347 57 336 51 326 C44 313 35 301 26 289 C27 297 29 305 31 314 L31 314 Z M50 98 C51 94 51 89 52 85 C54 69 54 52 51 36 C49 26 47 15 43 5 C34 -20 20 -45 -1 -70 C-11 -81 -21 -92 -32 -102 C-51 -119 -70 -135 -91 -147 C-104 -154 -118 -160 -131 -162 C-151 -164 -163 -152 -163 -130 C-163 -120 -161 -108 -158 -97 C-150 -72 -138 -48 -125 -25 C-95 25 -59 69 -18 108 C-3 123 13 138 28 152 C29 153 30 154 32 155 C33 151 34 148 35 148 C40 132 46 115 50 98 L50 98 Z " />
<glyph glyph-name="t" unicode="t" horiz-adv-x="132" d="M366 523 C359 529 351 534 343 538 C318 549 291 552 263 553 C230 554 197 550 165 545 C147 542 129 539 111 535 C117 556 123 576 129 596 C133 608 136 620 137 632 C137 638 135 641 130 643 C126 644 125 643 123 639 C114 612 105 586 96 560 C93 550 90 540 86 530 C69 526 51 522 34 517 C-6 507 -46 497 -85 488 C-113 481 -142 476 -170 476 C-182 477 -194 478 -205 483 C-214 487 -219 494 -219 506 C-220 513 -218 520 -216 527 C-213 534 -210 541 -207 548 C-206 550 -206 552 -208 554 C-211 557 -213 556 -216 552 C-222 543 -226 533 -228 522 C-232 504 -227 489 -213 480 C-210 477 -205 475 -201 473 C-185 468 -169 467 -153 468 C-129 469 -106 472 -83 478 C-41 488 0 498 42 508 C55 511 68 514 82 517 C77 504 72 490 67 476 C57 448 47 420 37 392 C33 378 28 365 24 351 C5 290 -13 229 -24 166 C-27 145 -31 123 -30 101 C-30 96 -30 90 -28 84 C-28 83 -27 82 -27 81 L-27 81 C-26 80 -25 78 -24 76 C-21 71 -14 65 -1 74 C1 75 3 77 6 79 C6 79 7 80 7 81 C25 96 42 121 42 122 L139 262 C139 262 141 265 140 267 C139 271 135 273 132 269 C132 269 36 131 36 131 C36 131 36 131 36 131 C36 130 32 125 27 118 C27 118 7 93 -5 84 C-9 93 -8 105 -7 109 C-5 128 -3 148 0 166 C8 209 19 250 31 292 C48 351 67 410 88 468 C92 480 96 492 100 503 L104 513 C105 516 105 518 105 518 C106 520 106 521 107 523 C146 531 186 537 226 540 C249 542 273 542 296 540 C310 538 324 535 338 529 C348 525 357 520 365 513 C374 504 378 492 375 477 C374 472 373 466 370 460 C364 445 357 430 351 414 C350 412 348 410 348 407 C347 402 349 398 354 398 C357 405 361 413 364 420 C369 430 374 440 379 450 C391 479 387 504 366 523 L366 523 Z " />
<glyph glyph-name="u" unicode="u" horiz-adv-x="213" d="M213 269 C186 238 159 208 132 177 C120 163 107 148 94 134 C93 133 91 131 90 130 C89 128 81 121 71 116 C64 112 65 120 66 126 C66 130 67 134 68 138 C80 180 96 221 113 262 C117 272 120 282 124 293 C126 299 123 304 118 307 C112 309 109 305 108 304 L106 300 L106 300 L101 292 C101 292 101 292 101 292 L98 288 L98 288 C78 255 57 222 35 189 C24 171 13 154 0 137 C0 137 0 136 -1 136 C-11 123 -16 122 -16 122 C-16 122 -17 122 -18 122 C-18 122 -18 122 -18 122 C-18 122 -18 122 -18 122 C-27 123 -10 177 -10 177 L-10 177 L-5 193 C-5 193 -5 193 -5 193 C-5 194 -4 195 -4 196 C-4 196 -4 197 -4 197 C-4 198 -3 199 -3 201 C-3 201 -2 201 -2 201 C2 216 7 231 12 246 C14 251 15 256 16 261 C16 261 16 262 16 262 C17 266 13 270 7 272 C3 274 1 272 0 271 C0 271 0 271 0 270 C-11 248 -21 224 -28 200 C-28 199 -29 198 -29 196 L-29 197 C-29 197 -52 136 -37 117 L-37 117 C-37 117 -37 117 -36 116 C-31 109 -19 108 -11 112 C-2 117 4 126 10 134 C17 143 23 153 30 163 C43 183 56 203 69 223 C73 230 77 236 81 243 C68 210 56 177 47 143 C46 140 46 137 45 134 C44 126 40 92 69 102 C69 103 69 103 69 103 C83 109 95 120 105 131 C130 159 154 187 178 215 C193 231 207 247 221 264 C226 269 217 274 213 269 L213 269 Z " />
<glyph glyph-name="v" unicode="v" horiz-adv-x="169" d="M169 269 C148 244 124 217 96 200 C84 192 69 185 56 192 C65 206 73 220 81 234 C89 251 99 270 98 289 C97 297 94 304 87 307 C79 310 72 306 66 301 C52 289 42 271 36 253 C30 236 27 217 35 200 C37 196 39 192 42 189 C34 176 24 164 14 152 C8 145 3 138 -4 132 C-6 129 -18 118 -20 124 L-20 124 C-24 134 -10 177 -10 177 L-5 193 C-5 193 -5 193 -5 193 C-5 194 -5 195 -4 196 C-4 196 -4 197 -4 197 C-4 198 -3 199 -3 201 C-3 201 -3 201 -3 201 C2 216 7 231 12 246 C13 251 15 256 16 261 C16 261 16 262 16 262 C17 266 13 270 7 272 C3 274 1 272 0 271 C-12 247 -21 224 -28 200 C-28 199 -29 198 -29 196 L-29 197 C-29 197 -52 136 -37 117 L-37 117 C-37 117 -37 117 -37 116 C-35 115 -34 114 -32 113 C-17 103 1 122 1 122 C4 125 7 128 9 131 C23 147 36 163 48 180 C49 181 50 183 50 184 C57 180 66 179 74 180 C94 183 112 198 127 211 C145 226 161 244 176 262 C179 267 173 274 169 269 L169 269 Z M49 199 C49 199 48 198 48 198 C40 206 39 220 41 232 C43 247 49 263 58 276 C62 283 67 289 73 294 C75 296 78 299 82 298 C85 298 87 295 87 291 C90 276 82 258 75 245 C67 229 59 214 49 199 L49 199 Z " />
<glyph glyph-name="w" unicode="w" horiz-adv-x="278" d="M278 270 C258 258 236 244 212 240 C205 238 195 238 189 243 C184 247 183 253 183 260 C185 266 186 273 187 279 C188 284 181 289 178 283 C175 277 173 269 173 261 C164 233 148 207 133 183 C124 168 114 153 102 140 C99 137 95 133 92 130 C91 129 90 129 90 128 C90 128 90 128 90 128 C89 128 88 127 87 126 C87 126 87 126 87 126 C77 118 74 123 73 127 C73 127 73 127 73 128 C73 142 84 177 84 177 L89 193 C89 193 89 193 89 193 C90 194 90 195 90 196 C90 196 90 197 90 197 C91 198 91 199 92 201 C92 201 92 201 92 201 C97 216 102 231 106 246 C108 251 109 256 110 261 C111 261 111 262 111 262 C112 266 107 270 101 272 C99 273 92 270 90 268 C82 261 67 237 67 237 C57 221 47 205 36 189 C25 171 14 154 1 137 C1 137 0 136 0 136 C-10 123 -15 122 -15 122 C-16 122 -16 122 -17 122 C-17 122 -17 122 -17 122 C-27 123 -9 177 -9 177 L-4 193 C-4 193 -4 193 -4 193 C-4 194 -4 195 -3 196 C-3 196 -3 197 -3 197 C-3 198 -2 199 -2 201 C-2 201 -2 201 -2 201 C3 216 8 231 13 246 C14 251 16 256 17 261 C17 261 17 262 17 262 C18 266 14 270 8 272 C5 273 1 272 0 271 C-11 249 -20 224 -27 200 C-27 199 -28 198 -28 196 L-28 197 C-28 197 -51 136 -36 117 C-36 117 -36 117 -36 116 C-34 114 -31 112 -29 111 C-12 105 5 126 8 131 C8 131 9 131 9 132 C9 132 9 132 9 132 L9 132 C9 132 10 133 10 134 C18 143 24 153 31 163 C44 183 57 203 70 223 C74 229 77 235 81 241 C75 227 71 214 66 200 C66 199 66 198 65 196 L65 197 C65 197 55 169 53 146 C53 145 53 144 52 143 C52 135 53 127 56 120 C58 117 60 114 64 112 C71 109 79 111 86 114 C93 118 98 122 102 126 C103 127 105 128 106 130 C110 134 114 138 117 143 C138 168 154 197 169 226 C172 232 174 237 177 243 C177 242 178 241 179 240 C185 231 196 229 206 229 C234 231 260 248 283 262 C288 265 283 274 278 270 L278 270 Z " />
<glyph glyph-name="x" unicode="x" horiz-adv-x="148" d="M148 269 C123 241 98 213 74 185 C73 185 73 184 72 184 C72 184 72 183 72 183 C51 160 33 143 32 142 C26 137 19 132 14 128 C13 128 13 128 13 128 C11 131 10 136 10 139 C10 141 10 143 9 144 C8 162 10 180 11 198 C12 199 12 200 13 201 C22 212 31 223 40 233 C56 251 72 269 88 287 C91 289 91 290 88 292 C85 294 82 293 78 289 C59 271 41 251 24 231 C21 227 17 224 14 219 C14 221 14 222 14 224 C15 236 17 248 18 261 C18 267 17 274 16 281 C16 286 9 288 3 286 C3 286 3 285 2 285 L-4 254 L-4 254 C-4 254 -4 253 -4 253 C-9 232 -13 211 -15 190 C-15 186 -16 183 -19 179 C-42 149 -64 120 -87 90 C-92 84 -96 77 -100 70 C-102 67 -101 65 -99 63 C-97 61 -94 60 -90 61 C-89 61 -88 62 -89 64 C-91 66 -90 68 -88 70 C-83 79 -77 88 -71 96 C-55 117 -38 137 -22 158 C-20 161 -19 163 -16 166 C-16 162 -16 160 -16 157 C-16 151 -15 144 -14 138 L-14 138 C-14 138 -13 126 -6 120 C-6 119 -6 119 -6 119 C-5 118 -3 117 -2 117 C4 114 12 117 20 122 C21 122 22 123 23 124 C23 124 23 124 23 124 C24 124 25 125 25 125 C39 135 66 163 70 167 C85 184 101 202 116 220 C129 234 143 249 156 264 C160 269 152 274 148 269 L148 269 Z " />
<glyph glyph-name="y" unicode="y" horiz-adv-x="204" d="M204 270 C152 231 106 185 63 136 L114 270 L114 270 L114 270 L116 273 C117 277 117 284 110 286 C98 290 94 280 94 280 L94 280 C75 250 55 219 36 189 C24 171 13 154 0 137 C0 137 0 136 0 136 C-10 123 -15 122 -15 122 C-16 122 -17 122 -17 122 C-18 122 -18 122 -18 122 C-18 122 -18 122 -18 122 C-27 123 -10 177 -10 177 L-5 193 C-5 193 -5 193 -5 193 C-4 194 -4 195 -4 196 C-4 196 -4 197 -4 197 C-3 198 -3 199 -2 201 C-2 201 -2 201 -2 201 C3 216 8 231 12 246 C14 251 15 256 16 261 C17 261 17 262 17 262 C18 266 13 270 7 272 C4 273 0 272 0 270 C-11 248 -20 224 -28 200 C-28 199 -28 198 -29 196 L-29 197 C-29 197 -52 136 -37 117 L-37 117 C-37 117 -36 117 -36 116 C-30 109 -19 108 -11 112 C-2 117 4 126 10 134 C17 143 24 153 30 163 C44 183 57 203 69 223 C74 230 78 236 82 243 C75 228 69 213 64 198 C64 198 64 198 64 198 C57 177 49 157 42 137 L42 137 L26 92 C16 81 7 69 -3 58 C-25 31 -47 4 -67 -24 C-88 -52 -107 -81 -124 -111 C-140 -138 -158 -168 -155 -201 C-154 -206 -153 -211 -151 -217 C-147 -226 -135 -244 -99 -217 C-97 -216 -84 -205 -69 -186 C-55 -168 -44 -148 -34 -127 C-13 -84 2 -39 17 6 C21 18 25 29 29 41 C38 65 46 88 54 110 C55 112 56 113 58 115 C98 162 141 207 190 247 C196 252 202 257 209 262 C214 265 209 274 204 270 L204 270 Z M1 20 C-14 -28 -29 -76 -50 -123 C-59 -143 -69 -163 -82 -181 C-85 -186 -115 -226 -133 -222 C-139 -221 -142 -213 -143 -209 C-143 -208 -144 -207 -144 -207 C-151 -176 -133 -145 -118 -120 C-102 -92 -84 -64 -65 -38 C-46 -10 -25 16 -3 42 C3 50 10 58 17 66 C11 50 6 35 1 20 L1 20 Z " />
<glyph glyph-name="z" unicode="z" horiz-adv-x="183" d="M183 270 C138 236 98 198 61 156 C60 156 60 155 59 155 C56 151 52 147 49 143 C49 143 43 172 19 190 C15 192 11 194 8 196 C10 199 13 202 15 205 C22 214 29 223 36 232 C43 241 49 251 52 262 C55 275 50 285 38 288 C37 288 37 288 36 288 C36 288 36 288 36 288 C36 288 36 288 35 288 C21 290 -8 265 -8 265 C-8 264 -9 264 -10 263 C-10 263 -10 262 -10 261 L-10 261 L-10 261 C-10 261 -10 261 -10 261 C-10 260 -10 255 -5 256 C-4 256 -2 256 1 259 C1 259 1 259 1 259 C8 264 24 276 35 278 C35 273 33 267 29 262 C23 252 15 243 8 233 C2 225 -6 216 -12 207 C-16 202 -15 198 -11 194 C-8 191 -5 189 -1 187 C1 186 3 185 5 183 C8 181 25 164 28 120 L5 92 C-5 81 -14 69 -24 58 C-46 31 -68 4 -88 -24 C-109 -52 -128 -81 -145 -111 C-161 -138 -179 -168 -176 -201 C-175 -204 -175 -207 -174 -211 C-171 -221 -161 -240 -129 -228 C-105 -219 -67 -189 -15 -110 C52 -8 64 77 52 132 C52 132 52 132 53 133 C53 133 53 133 53 133 C89 174 127 213 169 247 C175 252 181 257 188 262 C193 265 188 274 183 270 L183 270 Z M-1 -33 C-15 -69 -40 -108 -40 -109 C-63 -143 -98 -192 -126 -213 C-130 -216 -134 -219 -138 -220 C-138 -220 -138 -220 -138 -220 C-145 -223 -155 -224 -159 -218 C-162 -215 -163 -212 -164 -209 C-164 -209 -164 -209 -164 -209 C-164 -208 -165 -207 -165 -207 C-172 -176 -154 -145 -139 -120 C-123 -92 -105 -64 -86 -38 C-66 -10 -46 16 -24 42 C-23 43 -22 45 -21 46 C-21 46 3 76 29 106 C29 73 22 28 -1 -33 L-1 -33 Z " />
<glyph glyph-name="braceleft" unicode="&#x7b;" horiz-adv-x="148" d="M56 297 C60 301 62 303 64 305 C73 313 82 321 90 329 C115 353 137 381 154 413 C168 438 178 464 188 490 C203 534 219 577 235 620 C242 638 250 656 261 672 C266 679 272 686 278 690 C281 687 283 685 285 685 C288 684 291 686 290 690 C289 693 287 697 284 698 C276 703 266 699 258 691 C246 681 237 668 230 654 C215 628 204 601 194 573 C179 535 164 496 149 458 C137 426 121 396 100 369 C85 351 69 335 53 318 C48 313 44 307 40 301 C37 297 37 293 40 291 C43 289 47 287 51 286 C58 285 67 286 74 286 C82 286 82 285 79 276 C79 276 79 276 79 276 C71 255 63 233 56 211 C43 174 29 137 17 100 C8 73 0 47 -7 20 C-14 -5 -20 -29 -23 -54 C-26 -79 -17 -95 -1 -106 C5 -109 13 -107 19 -101 C22 -99 25 -95 23 -92 C22 -89 19 -91 16 -92 C15 -93 13 -93 12 -93 C7 -88 2 -83 -1 -74 C-4 -61 -3 -46 0 -32 C5 -11 10 9 16 29 C24 58 32 86 42 114 C61 169 80 222 100 276 C102 284 101 291 95 294 C93 296 89 297 85 297 C76 297 67 297 56 297 L56 297 Z " />
<glyph glyph-name="bar" unicode="&#x7c;" horiz-adv-x="170" d="M110 688 C110 689 110 690 110 691 C109 697 105 700 101 700 C100 701 99 700 99 697 C98 680 98 662 97 645 C95 602 93 559 91 516 C88 466 84 416 81 367 C75 281 72 195 68 109 C66 48 63 -13 61 -73 C61 -83 61 -93 62 -103 C62 -109 64 -111 68 -111 C70 -111 72 -110 73 -109 C74 -109 74 -107 74 -106 C74 -96 74 -86 74 -77 C77 -24 79 29 82 82 C86 138 90 194 93 250 C97 321 101 393 105 465 C109 524 112 585 112 645 C113 659 113 673 110 688 L110 688 Z " />
<glyph glyph-name="braceright" unicode="&#x7d;" horiz-adv-x="127" d="M132 691 C134 685 137 684 141 685 C145 687 149 688 152 689 C156 690 159 688 159 683 C160 676 160 669 160 662 C158 642 151 622 145 602 C132 565 118 528 104 491 C90 453 75 415 65 376 C61 362 60 348 66 337 C69 331 74 325 78 320 C80 317 83 314 86 310 C81 308 77 306 73 303 C61 297 51 288 45 274 C39 260 33 246 29 231 C16 192 5 153 -7 114 C-17 80 -28 46 -39 12 C-46 -11 -55 -33 -67 -54 C-77 -72 -90 -85 -106 -94 C-113 -97 -114 -96 -114 -89 C-114 -89 -115 -88 -114 -88 C-114 -84 -116 -83 -119 -84 C-124 -85 -128 -89 -129 -94 C-130 -102 -128 -107 -122 -108 C-118 -108 -112 -107 -108 -105 C-82 -94 -60 -77 -45 -47 C-24 -5 -9 38 4 82 C9 100 14 118 19 135 C27 161 35 187 43 213 C50 234 57 254 65 274 C68 284 75 290 83 294 C88 296 93 298 98 301 C107 305 108 309 103 316 C98 321 94 326 89 331 C81 340 79 352 82 367 C85 385 92 402 98 420 C106 442 115 464 123 485 C135 519 147 552 158 585 C165 605 171 626 174 647 C176 659 176 671 173 681 C170 692 165 698 155 699 C148 699 140 696 132 691 L132 691 Z " />
<glyph glyph-name="asciitilde" unicode="&#x7e;" horiz-adv-x="180" d="M0 198 C-1 196 -1 195 -2 194 C0 190 3 188 8 189 C8 190 10 190 11 191 C22 206 35 218 50 231 C52 232 54 233 56 235 C55 231 55 228 55 226 C55 217 54 208 54 200 C54 190 70 184 83 193 C85 194 86 195 88 195 C99 204 110 212 121 221 C129 226 134 233 141 239 C142 240 143 242 142 244 C140 246 135 246 132 244 C129 241 125 239 123 237 C108 225 92 213 75 203 C74 202 74 201 72 200 C72 205 72 208 72 212 C72 221 73 228 73 236 C74 247 58 255 44 244 C35 236 26 228 18 220 C11 213 5 205 0 198 L0 198 Z " />
<glyph glyph-name="quoteleft" unicode="&#x2018;" horiz-adv-x="170" d="M175 702 C175 707 173 710 168 711 C164 711 161 710 160 706 C157 697 155 688 152 680 L142 642 C142 641 142 639 143 639 C146 634 151 635 154 640 C155 641 156 643 156 644 L170 687 L175 702 L175 702 Z " />
<glyph glyph-name="quoteright" unicode="&#x2019;" horiz-adv-x="170" d="M175 702 C175 707 173 710 168 711 C164 711 161 710 160 706 C157 697 155 688 152 680 L142 642 C142 641 142 639 143 639 C146 634 151 635 154 640 C155 641 156 643 156 644 L170 687 L175 702 L175 702 Z " />
<glyph glyph-name="quotedblleft" unicode="&#x201c;" horiz-adv-x="200" d="M202 702 L202 702 C202 707 200 710 195 711 C191 711 188 710 187 706 L179 680 C175 667 172 655 169 642 C169 641 169 639 169 639 C173 634 178 635 181 640 L183 644 L197 687 C199 692 200 698 202 702 L202 702 Z M179 702 C180 707 177 710 172 711 C168 711 166 710 164 706 C162 697 159 688 156 680 C153 667 150 655 146 642 C146 641 146 639 147 639 C150 634 155 635 158 640 C159 641 160 643 160 644 C165 659 170 673 174 687 L179 702 Z " />
<glyph glyph-name="quotedblright" unicode="&#x201d;" horiz-adv-x="196" d="M202 702 L202 702 C202 707 200 710 195 711 C191 711 188 710 187 706 L179 680 C175 667 172 655 169 642 C169 641 169 639 169 639 C173 634 178 635 181 640 L183 644 L197 687 C199 692 200 698 202 702 L202 702 Z M179 702 C180 707 177 710 172 711 C168 711 166 710 164 706 C162 697 159 688 156 680 C153 667 150 655 146 642 C146 641 146 639 147 639 C150 634 155 635 158 640 C159 641 160 643 160 644 C165 659 170 673 174 687 L179 702 Z " />
</font>
</svg>
